<svg width="343" height="256" viewBox="0 0 343 256" fill="none" xmlns="http://www.w3.org/2000/svg">
<path d="M205.971 59.8931L230.976 29.7434L255.981 59.8931V176.646" stroke="#0F8C8C" stroke-miterlimit="10"/>
<g opacity="0.81">
<path opacity="0.81" d="M246.735 64.9314H240.016V71.6504H246.735V64.9314Z" stroke="#0F8C8C" stroke-miterlimit="10"/>
<path opacity="0.81" d="M234.028 64.9314H227.309V71.6504H234.028V64.9314Z" stroke="#0F8C8C" stroke-miterlimit="10"/>
<path opacity="0.81" d="M221.326 64.9314H214.607V71.6504H221.326V64.9314Z" stroke="#0F8C8C" stroke-miterlimit="10"/>
</g>
<g opacity="0.46">
<path opacity="0.46" d="M246.735 80.5379H240.016V87.2568H246.735V80.5379Z" stroke="#0F8C8C" stroke-miterlimit="10"/>
<path opacity="0.46" d="M234.028 80.5379H227.309V87.2568H234.028V80.5379Z" stroke="#0F8C8C" stroke-miterlimit="10"/>
<path opacity="0.46" d="M221.326 80.5379H214.607V87.2568H221.326V80.5379Z" stroke="#0F8C8C" stroke-miterlimit="10"/>
</g>
<g opacity="0.25">
<path opacity="0.25" d="M246.735 96.8037H240.016V103.523H246.735V96.8037Z" stroke="#0F8C8C" stroke-miterlimit="10"/>
<path opacity="0.25" d="M234.028 96.8037H227.309V103.523H234.028V96.8037Z" stroke="#0F8C8C" stroke-miterlimit="10"/>
<path opacity="0.25" d="M221.326 96.8037H214.607V103.523H221.326V96.8037Z" stroke="#0F8C8C" stroke-miterlimit="10"/>
</g>
<g opacity="0.25">
<path opacity="0.25" d="M246.735 110.779H240.016V117.498H246.735V110.779Z" stroke="#0F8C8C" stroke-miterlimit="10"/>
<path opacity="0.25" d="M234.028 110.779H227.309V117.498H234.028V110.779Z" stroke="#0F8C8C" stroke-miterlimit="10"/>
<path opacity="0.25" d="M221.326 110.779H214.607V117.498H221.326V110.779Z" stroke="#0F8C8C" stroke-miterlimit="10"/>
</g>
<path d="M265.283 158.345V16.6942H330.175V176.917" stroke="#0F8C8C" stroke-miterlimit="10"/>
<path d="M271.732 29.7434V38.0325H280.022V22.8186H271.732V29.7434ZM273.093 24.1791H278.657V29.7434H273.093V24.1791ZM273.093 31.1077H278.657V36.6567H273.093V31.1077Z" fill="#04D99D" fill-opacity="0.27"/>
<path d="M286.351 29.7434V38.0325H294.636V22.8186H286.351V29.7434ZM287.712 24.1791H293.276V29.7434H287.712V24.1791ZM287.712 31.1077H293.276V36.6567H287.712V31.1077Z" fill="#04D99D" fill-opacity="0.27"/>
<path d="M300.567 29.7434V38.0325H308.853V22.8186H300.567V29.7434ZM301.928 24.1791H307.492V29.7434H301.928V24.1791ZM301.928 31.1077H307.492V36.6567H301.928V31.1077Z" fill="#04D99D" fill-opacity="0.27"/>
<path d="M313.948 22.8186V38.0325H322.233V22.8186H313.948ZM320.873 36.6567H315.308V31.1077H320.873V36.6567ZM320.873 29.7319H315.308V24.1677H320.873V29.7319Z" fill="#04D99D" fill-opacity="0.27"/>
<path d="M271.732 50.2091V58.4982H280.022V43.2843H271.732V50.2091ZM273.093 44.6448H278.657V50.2091H273.093V44.6448ZM273.093 51.5696H278.657V57.1376H273.093V51.5696Z" fill="#04D99D" fill-opacity="0.27"/>
<path d="M286.351 50.2091V58.4982H294.636V43.2843H286.351V50.2091ZM287.712 44.6448H293.276V50.2091H287.712V44.6448ZM287.712 51.5696H293.276V57.1376H287.712V51.5696Z" fill="#04D99D" fill-opacity="0.27"/>
<path d="M300.567 50.2091V58.4982H308.853V43.2843H300.567V50.2091ZM301.928 44.6448H307.492V50.2091H301.928V44.6448ZM301.928 51.5696H307.492V57.1376H301.928V51.5696Z" fill="#04D99D" fill-opacity="0.27"/>
<path d="M313.948 50.2091V58.4982H322.233V43.2843H313.948V50.2091ZM315.308 44.6448H320.873V50.2091H315.308V44.6448ZM315.308 51.5696H320.873V57.1376H315.308V51.5696Z" fill="#04D99D" fill-opacity="0.27"/>
<path d="M271.732 70.6747V78.96H280.022V63.7499H271.732V70.6747ZM273.093 65.1105H278.657V70.6747H273.093V65.1105ZM273.093 72.0391H278.657V77.6033H273.093V72.0391Z" fill="#04D99D" fill-opacity="0.27"/>
<path d="M286.351 70.6747V78.96H294.636V63.7499H286.351V70.6747ZM287.712 65.1105H293.276V70.6747H287.712V65.1105ZM287.712 72.0391H293.276V77.6033H287.712V72.0391Z" fill="#04D99D" fill-opacity="0.27"/>
<path d="M300.567 70.6747V78.96H308.853V63.7499H300.567V70.6747ZM301.928 65.1105H307.492V70.6747H301.928V65.1105ZM301.928 72.0391H307.492V77.6033H301.928V72.0391Z" fill="#04D99D" fill-opacity="0.27"/>
<path d="M313.948 70.6747V78.96H322.233V63.7499H313.948V70.6747ZM315.308 65.1105H320.873V70.6747H315.308V65.1105ZM315.308 72.0391H320.873V77.6033H315.308V72.0391Z" fill="#04D99D" fill-opacity="0.27"/>
<path d="M271.732 91.1556V99.441H280.022V84.2156H271.732V91.1556ZM273.093 85.5914H278.657V91.1556H273.093V85.5914ZM273.093 92.5162H278.657V98.0804H273.093V92.5162Z" fill="#04D99D" fill-opacity="0.27"/>
<path d="M286.351 91.1556V99.441H294.636V84.2156H286.351V91.1556ZM287.712 85.5914H293.276V91.1556H287.712V85.5914ZM287.712 92.5162H293.276V98.0804H287.712V92.5162Z" fill="#04D99D" fill-opacity="0.27"/>
<path d="M300.567 91.1556V99.441H308.853V84.2156H300.567V91.1556ZM301.928 85.5914H307.492V91.1556H301.928V85.5914ZM301.928 92.5162H307.492V98.0804H301.928V92.5162Z" fill="#04D99D" fill-opacity="0.27"/>
<path d="M313.948 91.1556V99.441H322.233V84.2156H313.948V91.1556ZM315.308 85.5914H320.873V91.1556H315.308V85.5914ZM315.308 92.5162H320.873V98.0804H315.308V92.5162Z" fill="#04D99D" fill-opacity="0.27"/>
<path d="M271.732 111.606V119.895H280.022V104.681H271.732V111.606ZM273.093 106.046H278.657V111.606H273.093V106.046ZM273.093 112.97H278.657V118.535H273.093V112.97Z" fill="#04D99D" fill-opacity="0.27"/>
<path d="M286.351 111.606V119.895H294.636V104.681H286.351V111.606ZM287.712 106.046H293.276V111.606H287.712V106.046ZM287.712 112.97H293.276V118.535H287.712V112.97Z" fill="#04D99D" fill-opacity="0.27"/>
<path d="M300.567 111.606V119.895H308.853V104.681H300.567V111.606ZM301.928 106.046H307.492V111.606H301.928V106.046ZM301.928 112.97H307.492V118.535H301.928V112.97Z" fill="#04D99D" fill-opacity="0.27"/>
<path d="M313.948 111.606V119.895H322.233V104.681H313.948V111.606ZM315.308 106.046H320.873V111.606H315.308V106.046ZM315.308 112.97H320.873V118.535H315.308V112.97Z" fill="#04D99D" fill-opacity="0.27"/>
<path d="M116.754 176.959V112.822C116.753 103.88 113.629 95.2205 107.919 88.3392C106.913 87.1257 105.651 86.1489 104.224 85.4786C102.797 84.8082 101.239 84.461 99.6627 84.461C98.086 84.461 96.5288 84.8082 95.1016 85.4786C93.6747 86.1489 92.4128 87.1257 91.4059 88.3392C85.6973 95.2205 82.5722 103.88 82.5718 112.822V177.077" stroke="#0F8C8C" stroke-miterlimit="10"/>
<g opacity="0.81">
<path opacity="0.81" d="M88.8945 107.017H93.4869V102.425H88.8945V107.017Z" stroke="#0F8C8C" stroke-miterlimit="10"/>
<path opacity="0.81" d="M97.5718 107.017H102.164V102.425H97.5718V107.017Z" stroke="#0F8C8C" stroke-miterlimit="10"/>
<path opacity="0.81" d="M106.254 107.017H110.847V102.425H106.254V107.017Z" stroke="#0F8C8C" stroke-miterlimit="10"/>
</g>
<g opacity="0.46">
<path opacity="0.46" d="M88.8945 117.684H93.4869V113.092H88.8945V117.684Z" stroke="#0F8C8C" stroke-miterlimit="10"/>
<path opacity="0.46" d="M97.5718 117.684H102.164V113.092H97.5718V117.684Z" stroke="#0F8C8C" stroke-miterlimit="10"/>
<path opacity="0.46" d="M106.254 117.684H110.847V113.092H106.254V117.684Z" stroke="#0F8C8C" stroke-miterlimit="10"/>
</g>
<g opacity="0.25">
<path opacity="0.25" d="M88.8945 128.802H93.4869V124.209H88.8945V128.802Z" stroke="#0F8C8C" stroke-miterlimit="10"/>
<path opacity="0.25" d="M97.5718 128.802H102.164V124.209H97.5718V128.802Z" stroke="#0F8C8C" stroke-miterlimit="10"/>
<path opacity="0.25" d="M106.254 128.802H110.847V124.209H106.254V128.802Z" stroke="#0F8C8C" stroke-miterlimit="10"/>
</g>
<g opacity="0.25">
<path opacity="0.25" d="M88.8945 138.352H93.4869V133.76H88.8945V138.352Z" stroke="#0F8C8C" stroke-miterlimit="10"/>
<path opacity="0.25" d="M97.5718 138.352H102.164V133.76H97.5718V138.352Z" stroke="#0F8C8C" stroke-miterlimit="10"/>
<path opacity="0.25" d="M106.254 138.352H110.847V133.76H106.254V138.352Z" stroke="#0F8C8C" stroke-miterlimit="10"/>
</g>
<path d="M31.8643 177.252V69.459H76.218V177.1" stroke="#0F8C8C" stroke-miterlimit="10"/>
<path d="M71.8088 78.377V84.0403H66.1455V73.6436H71.8088V78.377ZM70.8751 74.5658H67.0754V78.377H70.8865L70.8751 74.5658ZM70.8751 79.2993H67.0754V83.1104H70.8865L70.8751 79.2993Z" fill="#04D99D" fill-opacity="0.27"/>
<path d="M61.8161 78.377V84.0403H56.1528V73.6436H61.8161V78.377ZM60.8862 74.5658H57.0751V78.377H60.8862V74.5658ZM60.8862 79.2993H57.0751V83.1104H60.8862V79.2993Z" fill="#04D99D" fill-opacity="0.27"/>
<path d="M52.1023 78.377V84.0403H46.439V73.6436H52.1023V78.377ZM51.1724 74.5658H47.3613V78.377H51.1724V74.5658ZM51.1724 79.2993H47.3613V83.1104H51.1724V79.2993Z" fill="#04D99D" fill-opacity="0.27"/>
<path d="M42.9558 73.6436V84.0403H37.2925V73.6436H42.9558ZM38.2224 83.1104H42.0335V79.2993H38.2224V83.1104ZM38.2224 78.377H42.0335V74.5658H38.2224V78.377Z" fill="#04D99D" fill-opacity="0.27"/>
<path d="M71.8088 92.3637V98.0156H66.1455V87.6342H71.8088V92.3637ZM70.8751 88.5526H67.0754V92.3637H70.8865L70.8751 88.5526ZM70.8751 93.286H67.0754V97.0971H70.8865L70.8751 93.286Z" fill="#04D99D" fill-opacity="0.27"/>
<path d="M61.8161 92.3637V98.0156H56.1528V87.6342H61.8161V92.3637ZM60.8862 88.5526H57.0751V92.3637H60.8862V88.5526ZM60.8862 93.286H57.0751V97.0971H60.8862V93.286Z" fill="#04D99D" fill-opacity="0.27"/>
<path d="M52.1023 92.3637V98.0156H46.439V87.6342H52.1023V92.3637ZM51.1724 88.5526H47.3613V92.3637H51.1724V88.5526ZM51.1724 93.286H47.3613V97.0971H51.1724V93.286Z" fill="#04D99D" fill-opacity="0.27"/>
<path d="M42.9558 92.3637V98.0156H37.2925V87.6342H42.9558V92.3637ZM42.0259 88.5526H38.2148V92.3637H42.0259V88.5526ZM42.0259 93.286H38.2148V97.0971H42.0259V93.286Z" fill="#04D99D" fill-opacity="0.27"/>
<path d="M71.8088 106.354V112.018H66.1455V101.621H71.8088V106.354ZM70.8751 102.543H67.0754V106.354H70.8865L70.8751 102.543ZM70.8751 107.277H67.0754V111.088H70.8865L70.8751 107.277Z" fill="#04D99D" fill-opacity="0.27"/>
<path d="M61.8161 106.354V112.018H56.1528V101.621H61.8161V106.354ZM60.8862 102.543H57.0751V106.354H60.8862V102.543ZM60.8862 107.277H57.0751V111.088H60.8862V107.277Z" fill="#04D99D" fill-opacity="0.27"/>
<path d="M52.1023 106.354V112.018H46.439V101.621H52.1023V106.354ZM51.1724 102.543H47.3613V106.354H51.1724V102.543ZM51.1724 107.277H47.3613V111.088H51.1724V107.277Z" fill="#04D99D" fill-opacity="0.27"/>
<path d="M42.9558 106.354V112.018H37.2925V101.621H42.9558V106.354ZM42.0259 102.543H38.2148V106.354H42.0259V102.543ZM42.0259 107.277H38.2148V111.088H42.0259V107.277Z" fill="#04D99D" fill-opacity="0.27"/>
<path d="M71.8088 120.341V126.004H66.1455V115.608H71.8088V120.341ZM70.8751 116.53H67.0754V120.341H70.8865L70.8751 116.53ZM70.8865 121.263H67.0754V125.074H70.8865V121.263Z" fill="#04D99D" fill-opacity="0.27"/>
<path d="M61.8161 120.341V126.004H56.1528V115.608H61.8161V120.341ZM60.8862 116.53H57.0751V120.341H60.8862V116.53ZM60.8862 121.263H57.0751V125.074H60.8862V121.263Z" fill="#04D99D" fill-opacity="0.27"/>
<path d="M52.1023 120.341V126.004H46.439V115.608H52.1023V120.341ZM51.1724 116.53H47.3613V120.341H51.1724V116.53ZM51.1724 121.263H47.3613V125.074H51.1724V121.263Z" fill="#04D99D" fill-opacity="0.27"/>
<path d="M42.9558 120.341V126.004H37.2925V115.608H42.9558V120.341ZM42.0259 116.53H38.2148V120.341H42.0259V116.53ZM42.0259 121.263H38.2148V125.074H42.0259V121.263Z" fill="#04D99D" fill-opacity="0.27"/>
<path d="M71.8088 134.328V139.991H66.1455V129.594H71.8088V134.328ZM70.8751 130.517H67.0754V134.328H70.8865L70.8751 130.517ZM70.8751 135.25H67.0754V139.061H70.8865L70.8751 135.25Z" fill="#04D99D" fill-opacity="0.27"/>
<path d="M61.8161 134.328V139.991H56.1528V129.594H61.8161V134.328ZM60.8862 130.517H57.0751V134.328H60.8862V130.517ZM60.8862 135.25H57.0751V139.061H60.8862V135.25Z" fill="#04D99D" fill-opacity="0.27"/>
<path d="M52.1023 134.328V139.991H46.439V129.594H52.1023V134.328ZM51.1724 130.517H47.3613V134.328H51.1724V130.517ZM51.1724 135.25H47.3613V139.061H51.1724V135.25Z" fill="#04D99D" fill-opacity="0.27"/>
<path d="M42.9558 134.328V139.991H37.2925V129.594H42.9558V134.328ZM42.0259 130.517H38.2148V134.328H42.0259V130.517ZM42.0259 135.25H38.2148V139.061H42.0259V135.25Z" fill="#04D99D" fill-opacity="0.27"/>
<path d="M147.131 59.5424C147.131 59.5424 146.053 74.2152 129.798 72.8585C129.798 72.8585 135.492 87.4588 139.578 90.0428L160.104 103.035L165.021 80.05L147.131 59.5424Z" fill="#828282"/>
<path d="M129.729 114.784L86.7172 177.069L39.2842 177.233V176.364C39.2853 174.336 40.0563 172.384 41.4416 170.903C42.827 169.421 44.723 168.521 46.7463 168.384L59.8337 167.511L97.9981 98.614C99.8004 95.2587 102.279 92.3142 105.278 89.9662C108.276 87.6182 111.73 85.9176 115.419 84.9729C119.109 84.0281 122.954 83.8589 126.712 84.4763C130.47 85.094 134.06 86.4843 137.253 88.5602L137.58 88.7737L159.548 102.661L143.96 140.224L124.169 122.86" fill="white"/>
<path d="M275.196 151.062C271.236 162.084 263.991 163.872 255.519 163.304C251.087 157.496 245.835 149.584 241.589 143.673C236.655 136.775 231.714 129.886 226.764 123.009C225.503 121.241 224.241 119.484 222.953 117.715V144.214C222.958 145.582 222.867 146.948 222.682 148.303C198.543 168.933 164.064 143.048 159.361 139.309C159.006 139.038 158.831 138.886 158.831 138.886C156.579 122.563 159.01 110.219 159.529 100.885C160.237 88.4154 162.547 84.4519 164.597 80.6179L165.447 78.4684C167.04 75.4996 166.972 74.7602 167.185 74.6192L167.12 74.0742C167.12 74.0742 167.947 73.1443 167.947 73.1214C172.604 65.4344 176.191 59.0203 183.901 54.3975C181.233 56.364 179.388 61.1279 182.216 63.7309C185.505 66.7607 189.983 63.1783 192.681 61.0631C196.13 58.4597 199.156 55.34 201.653 51.8135C202.442 50.6702 203.433 49.4545 203.28 48.0024C208.867 47.9224 213.593 49.908 219.355 53.2389C226.642 57.4578 232.45 63.8223 236.414 71.2616L275.196 151.062Z" fill="#828282"/>
<path d="M205.571 32.9447V33.0514C205.571 35.2752 204.688 37.4075 203.115 38.98C201.543 40.5525 199.41 41.4359 197.187 41.4359C195.762 41.4424 194.36 41.0757 193.12 40.3726C192.764 40.1874 192.424 39.9705 192.106 39.7247C191.976 39.6184 191.874 39.4819 191.807 39.3276C191.741 39.1728 191.713 39.0048 191.726 38.8371C191.739 38.6698 191.792 38.5074 191.88 38.3649C191.969 38.222 192.091 38.1027 192.236 38.0173C193.955 36.9807 195.571 35.4715 196.15 33.5964C196.327 33.0209 196.386 32.4157 196.325 31.8166C196.275 31.0514 196.024 30.3132 195.597 29.6756C195.171 29.038 194.585 28.5238 193.898 28.1846C193.682 28.1027 193.456 28.0474 193.227 28.0208C192.579 27.9141 191.702 27.9255 191.504 28.4019C192.526 26.1305 192.772 23.5854 192.202 21.1608C191.847 19.6561 191.153 18.2521 190.174 17.0562C190.188 17.4876 190.107 17.9164 189.936 18.3127C189.766 18.7091 189.509 19.0628 189.186 19.3486C188.863 19.6344 188.48 19.8452 188.066 19.966C187.652 20.0868 187.216 20.115 186.79 20.0479C183.478 19.6668 183.112 16.4426 183.112 16.4426C183.112 16.4426 183.089 16.4769 183.089 16.4998C181.344 19.9908 177.114 19.743 174.225 17.8908C173.201 17.2548 172.325 16.4076 171.656 15.406C171.1 11.633 174.45 8.30972 178.009 8.08486C178.28 5.74103 180.201 3.35909 182.533 3.35909C183.344 3.3568 184.14 3.57175 184.839 3.98221C185.538 4.39228 186.114 4.98262 186.508 5.69148C186.569 5.80239 186.624 5.9171 186.672 6.03448C187.731 4.73871 189.408 3.36671 191.07 3.36671C192.234 3.36823 193.369 3.73258 194.317 4.40867C195.265 5.08476 195.979 6.03943 196.36 7.1397C196.36 6.97201 197.884 6.43084 198.033 6.37748C198.652 6.1976 199.294 6.11032 199.938 6.11833C201.062 6.14767 202.16 6.45867 203.132 7.02271C204.104 7.58675 204.919 8.38556 205.503 9.34634C205.561 9.68095 205.589 10.0201 205.586 10.3601C205.587 11.3758 205.348 12.3773 204.889 13.2832C205.412 13.4776 205.893 13.7699 206.307 14.1445C207.195 14.9212 207.743 16.0162 207.831 17.1934C207.831 17.3116 207.831 17.4297 207.831 17.5478C207.833 18.4374 207.567 19.3071 207.069 20.0441C207.617 20.2514 208.136 20.5297 208.612 20.8711C210.032 21.8944 210.991 23.4364 211.28 25.1624C211.344 25.5401 211.376 25.9228 211.375 26.3058C211.375 27.9274 210.787 29.4938 209.72 30.7148C208.652 31.9355 207.178 32.7279 205.571 32.9447Z" fill="#04D99D"/>
<path d="M205.571 32.9447V33.0514C205.571 35.2752 204.688 37.4075 203.115 38.98C201.543 40.5525 199.41 41.4359 197.187 41.4359C195.762 41.4424 194.36 41.0757 193.12 40.3726C194.839 39.336 196.455 37.8268 197.034 35.9555C197.241 35.2573 197.285 34.521 197.162 33.8034C197.039 33.0857 196.753 32.4062 196.325 31.8166C196.275 31.0514 196.024 30.3132 195.597 29.6756C195.171 29.038 194.585 28.5238 193.898 28.1846C193.682 28.1027 193.456 28.0474 193.227 28.0208C193.64 25.6834 193.28 23.2752 192.202 21.1608C191.847 19.6561 191.153 18.2521 190.174 17.0562C190.188 17.4876 190.107 17.9164 189.936 18.3127C189.766 18.7091 189.509 19.0628 189.186 19.3486C188.863 19.6344 188.48 19.8452 188.066 19.966C187.652 20.0868 187.216 20.115 186.79 20.0479C183.478 19.6668 183.112 16.4426 183.112 16.4426C183.112 16.4426 183.089 16.4769 183.089 16.4998C181.344 19.9908 177.114 19.743 174.225 17.8908C173.201 17.2548 172.325 16.4076 171.656 15.406C171.1 11.633 174.45 8.30972 178.009 8.08486C178.28 5.74103 180.201 3.35909 182.533 3.35909C183.344 3.3568 184.14 3.57175 184.839 3.98221C185.538 4.39228 186.114 4.98262 186.508 5.69148C186.569 5.80239 186.624 5.9171 186.672 6.03448C187.731 4.73871 189.408 3.36671 191.07 3.36671C192.234 3.36823 193.369 3.73258 194.317 4.40867C195.265 5.08476 195.979 6.03943 196.36 7.1397C196.36 6.97201 197.884 6.43084 198.033 6.37748C198.652 6.1976 199.294 6.11032 199.938 6.11833C201.062 6.14767 202.16 6.45867 203.132 7.02271C204.104 7.58675 204.919 8.38556 205.503 9.34634C205.561 9.68095 205.589 10.0201 205.586 10.3601C205.587 11.3758 205.348 12.3773 204.889 13.2832C205.412 13.4776 205.893 13.7699 206.307 14.1445C206.194 14.6647 206.015 15.1682 205.773 15.6423C206.593 15.9529 207.308 16.488 207.839 17.1858C207.839 17.3039 207.839 17.4221 207.839 17.5402C207.84 18.4297 207.575 19.2994 207.077 20.0365C207.625 20.2438 208.144 20.522 208.62 20.8635C208.492 21.4066 208.268 21.9226 207.961 22.388C209.355 22.904 210.534 23.8766 211.307 25.1472C211.37 25.5249 211.403 25.9075 211.402 26.2905C211.405 27.9186 210.814 29.4922 209.741 30.7171C208.668 31.9416 207.186 32.7336 205.571 32.9447Z" fill="#04D99D"/>
<path d="M183.923 255.087H129.729V254.039C129.728 251.967 130.531 249.974 131.968 248.482C133.405 246.989 135.365 246.112 137.436 246.035L150.226 245.506H180.425L183.923 255.087Z" fill="#04D99D"/>
<path d="M86.7173 177.069L39.2842 176.951V175.903C39.2827 173.83 40.0857 171.838 41.5236 170.345C42.9615 168.853 44.9227 167.976 46.9941 167.9L59.7841 167.378L93.0513 167.908L86.7173 177.069Z" fill="#04D99D"/>
<path d="M165.219 176.799H190.373C198.297 176.777 205.943 173.877 211.889 168.639C217.834 163.401 221.674 156.18 222.695 148.322C222.879 146.966 222.969 145.598 222.965 144.229V117.723" stroke="black" stroke-miterlimit="10"/>
<path d="M174.355 138.794L159.61 139.301H159.362L150.051 139.488C148 139.529 145.958 139.77 143.954 140.208C127.333 143.802 116.712 160.457 120.26 176.936C120.783 179.392 121.602 181.774 122.699 184.032L150.227 245.506L137.437 246.024C135.366 246.101 133.406 246.978 131.968 248.471C130.531 249.963 129.729 251.955 129.731 254.027V255.075H183.925L180.426 245.506L155.242 176.704" stroke="black" stroke-miterlimit="10"/>
<path d="M129.729 114.8L86.7173 177.069" stroke="black" stroke-miterlimit="10"/>
<path d="M143.945 140.224L124.154 122.86" stroke="black" stroke-miterlimit="10"/>
<path d="M185.613 176.776L185.483 176.658" stroke="black" stroke-miterlimit="10"/>
<path d="M137.566 88.7737L124.719 62.4541" stroke="black" stroke-miterlimit="10"/>
<path d="M293.722 176.704C293.722 176.726 293.745 176.738 293.757 176.765H282.88" stroke="black" stroke-miterlimit="10"/>
<path d="M168.143 176.822C168.143 176.765 168.108 176.704 168.097 176.658" stroke="black" stroke-miterlimit="10"/>
<path d="M203.284 48.3492C207.322 48.2414 211.331 49.0657 214.999 50.7578C223.553 54.7408 230.674 61.2609 235.392 69.4323C240.591 78.4989 244.798 88.282 249.417 97.6345C255.205 109.388 261.001 121.136 266.803 132.88C269.599 138.548 272.393 144.218 275.188 149.889L281.118 161.897C282.337 163.904 284.054 165.561 286.103 166.707C288.15 167.849 290.455 168.449 292.799 168.453C295.148 168.452 297.447 169.123 299.427 170.387C301.407 171.65 302.984 173.453 303.973 175.583L304.492 176.704H290.188" stroke="black" stroke-miterlimit="10"/>
<path d="M159.614 139.309C157.933 128.531 158.288 117.681 159.138 106.842C160.662 87.4702 166.554 68.0603 182.351 55.5293C182.759 55.2054 183.17 54.8853 183.597 54.588" stroke="black" stroke-miterlimit="10"/>
<path d="M198.707 74.0742C198.41 85.4847 208.147 97.0476 208.147 97.0476C208.147 97.0476 208.17 97.0704 208.17 97.0819C213.11 103.942 218.041 110.822 222.965 117.723C224.238 119.491 225.499 121.248 226.776 123.013C231.728 129.898 236.67 136.786 241.601 143.677C245.816 149.607 249.791 155.83 254.224 161.661C255.367 163.155 256.533 164.619 257.76 166.044C259.327 167.873 260.943 169.958 262.852 171.433C264.762 172.908 266.976 174.284 268.95 175.838C270.604 177.226 272.02 178.876 273.142 180.72C274.369 182.817 274.499 185.187 275.547 187.283C277.384 190.988 281.923 190.374 283.478 186.837C285.635 181.932 280.921 171.326 280.921 171.326" stroke="black" stroke-miterlimit="10"/>
<path d="M343 176.765H282.88" stroke="black" stroke-miterlimit="10"/>
<path d="M159.533 102.661L137.581 88.7737L137.253 88.5602C134.06 86.4843 130.471 85.094 126.712 84.4763C122.954 83.8589 119.109 84.0281 115.419 84.9729C111.73 85.9176 108.277 87.6182 105.278 89.9662C102.279 92.3142 99.8003 95.2587 97.9984 98.614L59.834 167.511L46.739 168.384C44.7153 168.521 42.8193 169.421 41.4343 170.903C40.049 172.384 39.278 174.336 39.2769 176.364V177.233" stroke="black" stroke-miterlimit="10"/>
<path d="M119.26 41.7789C121.075 42.1333 121.761 42.0151 123.072 42.2743C123.172 42.2899 123.275 42.2724 123.364 42.2247C123.454 42.1771 123.525 42.1017 123.568 42.0094C123.611 41.9176 123.623 41.8143 123.602 41.7148C123.581 41.6154 123.529 41.5258 123.453 41.4587L119.116 37.2665C117.928 36.2546 117.108 34.8788 116.783 33.3525L116.745 33.2C116.895 32.6817 117.18 32.2126 117.572 31.8418C117.964 31.4713 118.449 31.2125 118.975 31.0925C119.897 30.9431 120.842 31.0651 121.696 31.4431C123.11 31.9995 125.008 32.495 126.814 33.1162C129.313 33.9969 131.412 35.7455 132.729 38.044L132.897 38.3412C138.089 47.364 144.03 55.9348 150.656 63.9633L164.757 81.2924" stroke="black" stroke-miterlimit="10"/>
<path d="M121.513 64.2301C120.704 64.2301 119.917 63.971 119.267 63.4908C118.617 63.0106 118.138 62.3348 117.9 61.5623L114.272 50.3767L111.07 39.8085L106.897 26.2029C106.736 25.675 106.702 25.1167 106.8 24.5736C106.898 24.0305 107.124 23.5187 107.459 23.0804C107.795 22.6425 108.23 22.2908 108.729 22.0548C109.228 21.8193 109.776 21.7057 110.327 21.7248C111.041 21.7454 111.73 21.9862 112.301 22.4142C112.872 22.8418 113.297 23.4356 113.517 24.1144L119.268 41.7789L125.118 59.2757C125.303 59.8439 125.351 60.4483 125.257 61.0387C125.163 61.629 124.931 62.1889 124.579 62.6721C124.227 63.1558 123.766 63.5487 123.233 63.8197C122.7 64.0902 122.111 64.2309 121.513 64.2301Z" fill="#04D99D"/>
<path d="M121.513 64.2301C120.704 64.2301 119.917 63.971 119.267 63.4908C118.617 63.0106 118.138 62.3348 117.9 61.5623L114.272 50.3767L111.07 39.8085L106.897 26.2029C106.736 25.675 106.702 25.1167 106.8 24.5736C106.898 24.0305 107.124 23.5187 107.459 23.0804C107.795 22.6425 108.23 22.2908 108.729 22.0548C109.228 21.8193 109.776 21.7057 110.327 21.7248C111.041 21.7454 111.73 21.9862 112.301 22.4142C112.872 22.8418 113.297 23.4356 113.517 24.1144L119.268 41.7789L125.118 59.2757C125.303 59.8439 125.351 60.4483 125.257 61.0387C125.163 61.629 124.931 62.1889 124.579 62.6721C124.227 63.1558 123.766 63.5487 123.233 63.8197C122.7 64.0902 122.111 64.2309 121.513 64.2301Z" stroke="black" stroke-miterlimit="10"/>
<path d="M106.685 47.1068C105.778 47.0702 104.9 46.7794 104.15 46.2683C103.741 45.9642 103.397 45.5812 103.138 45.1422C102.88 44.7027 102.712 44.2161 102.644 43.7107C102.577 43.2054 102.612 42.6916 102.747 42.2004C102.882 41.7087 103.114 41.2491 103.43 40.8489C103.997 40.1492 104.762 39.6366 105.625 39.3779C106.729 39.0154 107.923 39.0314 109.017 39.4236C110.182 39.9282 111.135 40.8211 111.715 41.9504" stroke="black" stroke-miterlimit="10"/>
<path d="M108.937 54.3784C108.026 54.37 107.136 54.1059 106.369 53.6162C105.952 53.3227 105.598 52.9481 105.329 52.5155C105.06 52.0826 104.88 51.6001 104.8 51.0967C104.721 50.5932 104.743 50.0787 104.866 49.584C104.988 49.089 105.209 48.624 105.515 48.2158C106.067 47.5016 106.821 46.9704 107.68 46.6914C108.772 46.3019 109.963 46.2886 111.064 46.6533C112.158 47.0344 113.236 47.7128 113.766 48.7227" stroke="black" stroke-miterlimit="10"/>
<path d="M115.857 55.2931C115.203 54.4253 114.274 53.806 113.221 53.5358C112.169 53.2659 111.056 53.3612 110.065 53.8067C109.31 54.1314 108.669 54.6741 108.224 55.3655C107.979 55.7584 107.816 56.1967 107.743 56.654C107.67 57.1117 107.689 57.579 107.8 58.0287C107.911 58.4784 108.111 58.9014 108.388 59.2726C108.665 59.6438 109.013 59.956 109.413 60.1903L109.931 60.4686C109.931 60.4686 113.041 61.7186 118.228 62.3169" stroke="black" stroke-miterlimit="10"/>
<path d="M150.478 176.833C151.915 176.833 166.694 176.833 168.143 176.833C173.943 176.81 179.778 176.799 185.613 176.787C214.501 176.715 243.496 176.669 269.838 176.658" stroke="black" stroke-miterlimit="10"/>
<path d="M282.841 176.646C291.637 176.646 296.527 176.646 304.473 176.646C317.43 176.669 329.108 176.704 339.009 176.753" stroke="black" stroke-miterlimit="10"/>
<path d="M0 177.39C0.693622 177.39 53.9729 177.153 120.252 176.951" stroke="black" stroke-miterlimit="10"/>
<path d="M203.285 48.0062C203.437 49.4697 202.446 50.6969 201.657 51.8173C199.16 55.3438 196.134 58.4635 192.686 61.0669C189.988 63.1668 185.51 66.7493 182.221 63.7347C179.393 61.1317 181.218 56.3678 183.905 54.4013L183.94 54.3784" stroke="black" stroke-miterlimit="10"/>
<path d="M176.877 22.9749C176.877 22.9749 181.656 23.436 182.418 27.5482" stroke="black" stroke-miterlimit="10"/>
<path d="M174.651 34.9646C173.54 35.1426 172.405 35.1052 171.309 34.8541C171.102 34.8034 170.911 34.7028 170.751 34.5618C170.592 34.4204 170.47 34.2424 170.395 34.0431C170.32 33.8438 170.294 33.6292 170.321 33.4181C170.347 33.2065 170.425 33.0049 170.546 32.8304C171.69 31.2259 172.833 29.6405 174.095 28.1313C174.289 27.9411 174.422 27.6968 174.476 27.43C174.476 27.43 174.426 22.4032 175.749 18.6645" stroke="black" stroke-miterlimit="10"/>
<path d="M179.063 27.4338C179.231 26.6366 178.817 25.8747 178.139 25.7326C177.462 25.59 176.777 26.1209 176.609 26.9178C176.442 27.7151 176.855 28.4766 177.533 28.6191C178.21 28.7616 178.896 28.2307 179.063 27.4338Z" fill="black"/>
<path d="M203.285 48.3492C201.528 43.2538 200.72 40.6508 200.72 40.6508" stroke="black" stroke-linecap="round" stroke-linejoin="round"/>
<path d="M183.943 46.6456L183.916 64.2301" stroke="black" stroke-miterlimit="10"/>
<path d="M172.899 35.0751C172.899 35.0751 174.127 45.1898 179.035 47.1068C183.944 49.0238 188.818 43.1089 188.818 43.1089" stroke="black" stroke-linecap="round" stroke-linejoin="round"/>
<path d="M173.904 39.6751C174.54 40.1203 175.277 40.3996 176.048 40.488C176.82 40.5765 177.601 40.4713 178.321 40.182" stroke="black" stroke-linecap="round" stroke-linejoin="round"/>
<path d="M186.215 5.55047C186.216 4.77377 186.013 4.0104 185.628 3.33622C185.127 2.46995 184.357 1.79157 183.434 1.40512C182.511 1.01867 181.487 0.945503 180.519 1.19665C179.55 1.44781 178.691 2.00995 178.073 2.79619C177.454 3.5828 177.111 4.55005 177.095 5.55047" stroke="black" stroke-miterlimit="10" stroke-linecap="round"/>
<path d="M183.696 12.2656C183.691 11.1653 183.418 10.0834 182.9 9.11268C182.382 8.14237 181.635 7.31346 180.723 6.69759C176.15 3.61821 169.56 8.32111 170.868 13.6224C171.325 15.4708 172.655 16.8923 174.221 17.8946C177.106 19.7468 181.341 20.0022 183.078 16.5074L183.105 16.4502C183.105 16.4502 183.486 19.6668 186.783 20.0555C187.209 20.1211 187.645 20.0921 188.058 19.9705C188.472 19.8493 188.854 19.6382 189.177 19.3528C189.501 19.0673 189.757 18.7144 189.929 18.3188C190.101 17.9232 190.183 17.4948 190.171 17.0638C192.789 20.2384 193.178 24.686 191.509 28.4018C191.81 27.7311 193.456 27.9941 193.902 28.1922C195.891 29.0726 196.783 31.5765 196.158 33.5964C195.575 35.4791 193.959 36.9768 192.248 38.0249C192.103 38.1095 191.981 38.228 191.892 38.3706C191.802 38.5127 191.749 38.6743 191.736 38.8416C191.723 39.0089 191.751 39.177 191.817 39.3317C191.882 39.4861 191.985 39.6221 192.115 39.7285C193.358 40.6729 194.84 41.2514 196.393 41.3993C197.947 41.5471 199.512 41.2582 200.911 40.565C202.309 39.8718 203.487 38.802 204.31 37.4757C205.134 36.1494 205.57 34.6201 205.572 33.059V32.9523C207.055 32.7667 208.433 32.0895 209.487 31.0288C210.54 29.9682 211.208 28.5852 211.383 27.1007C211.558 25.6163 211.232 24.1159 210.455 22.8388C209.678 21.5617 208.495 20.5818 207.096 20.0555C207.595 19.3184 207.86 18.4488 207.858 17.5592C207.858 16.3462 207.377 15.183 206.519 14.3255C205.661 13.4676 204.498 12.9859 203.285 12.9859" stroke="black" stroke-linecap="round" stroke-linejoin="round"/>
<path d="M186.214 3.19901C187.24 1.78508 188.314 1 190.189 1C191.356 1.00114 192.492 1.36625 193.441 2.04462C194.389 2.72338 195.102 3.68111 195.479 4.78443C195.43 4.63198 197.004 4.06794 197.16 4.02221C197.779 3.84347 198.421 3.75619 199.065 3.76305C200.794 3.81107 202.437 4.52337 203.653 5.75245C204.869 6.98116 205.564 8.63175 205.594 10.3601C205.593 11.3757 205.354 12.3769 204.896 13.2832" stroke="black" stroke-linecap="square" stroke-linejoin="round"/>
<path d="M205.571 32.9447V33.0514C205.571 35.2752 204.688 37.4075 203.115 38.98C201.543 40.5525 199.41 41.4359 197.187 41.4359C195.762 41.4424 194.36 41.0757 193.12 40.3726C192.764 40.1874 192.424 39.9705 192.106 39.7247C191.976 39.6184 191.874 39.4819 191.807 39.3276C191.741 39.1728 191.713 39.0048 191.726 38.8371C191.739 38.6698 191.792 38.5074 191.88 38.3649C191.969 38.222 192.091 38.1027 192.236 38.0173C193.955 36.9807 195.571 35.4715 196.15 33.5964C196.327 33.0209 196.386 32.4157 196.325 31.8166C196.275 31.0514 196.024 30.3132 195.597 29.6756C195.171 29.038 194.585 28.5238 193.898 28.1846C193.682 28.1027 193.456 28.0474 193.227 28.0208C192.579 27.9141 191.702 27.9255 191.504 28.4019C192.526 26.1305 192.772 23.5854 192.202 21.1608C191.847 19.6561 191.153 18.2521 190.174 17.0562C190.188 17.4876 190.107 17.9164 189.936 18.3127C189.766 18.7091 189.509 19.0628 189.186 19.3486C188.863 19.6344 188.48 19.8452 188.066 19.966C187.652 20.0868 187.216 20.115 186.79 20.0479C183.478 19.6668 183.112 16.4426 183.112 16.4426C183.112 16.4426 183.089 16.4769 183.089 16.4998C181.344 19.9908 177.114 19.743 174.225 17.8908C173.201 17.2548 172.325 16.4076 171.656 15.406C171.1 11.633 174.45 8.30972 178.009 8.08486C178.28 5.74103 180.201 3.35909 182.533 3.35909C183.344 3.3568 184.14 3.57175 184.839 3.98221C185.538 4.39228 186.114 4.98262 186.508 5.69148C186.569 5.80239 186.624 5.9171 186.672 6.03448C187.731 4.73871 189.408 3.36671 191.07 3.36671C192.234 3.36823 193.369 3.73258 194.317 4.40867C195.265 5.08476 195.979 6.03943 196.36 7.1397C196.36 6.97201 197.884 6.43084 198.033 6.37748C198.652 6.1976 199.294 6.11032 199.938 6.11833C201.062 6.14767 202.16 6.45867 203.132 7.02271C204.104 7.58675 204.919 8.38556 205.503 9.34634C205.561 9.68095 205.589 10.0201 205.586 10.3601C205.587 11.3758 205.348 12.3773 204.889 13.2832C205.412 13.4776 205.893 13.7699 206.307 14.1445C207.195 14.9212 207.743 16.0162 207.831 17.1934C207.831 17.3116 207.831 17.4297 207.831 17.5478C207.833 18.4374 207.567 19.3071 207.069 20.0441C207.617 20.2514 208.136 20.5297 208.612 20.8711C210.032 21.8944 210.991 23.4364 211.28 25.1624C211.344 25.5401 211.376 25.9228 211.375 26.3058C211.375 27.9274 210.787 29.4938 209.72 30.7148C208.652 31.9355 207.178 32.7279 205.571 32.9447Z" fill="#04D99D"/>
<path d="M205.571 32.9447V33.0514C205.571 35.2752 204.688 37.4075 203.115 38.98C201.543 40.5525 199.41 41.4359 197.187 41.4359C195.762 41.4424 194.36 41.0757 193.12 40.3726C194.839 39.336 196.455 37.8268 197.034 35.9555C197.241 35.2573 197.285 34.521 197.162 33.8034C197.039 33.0857 196.753 32.4062 196.325 31.8166C196.275 31.0514 196.024 30.3132 195.597 29.6756C195.171 29.038 194.585 28.5238 193.898 28.1846C193.682 28.1027 193.456 28.0474 193.227 28.0208C193.64 25.6834 193.28 23.2752 192.202 21.1608C191.847 19.6561 191.153 18.2521 190.174 17.0562C190.188 17.4876 190.107 17.9164 189.936 18.3127C189.766 18.7091 189.509 19.0628 189.186 19.3486C188.863 19.6344 188.48 19.8452 188.066 19.966C187.652 20.0868 187.216 20.115 186.79 20.0479C183.478 19.6668 183.112 16.4426 183.112 16.4426C183.112 16.4426 183.089 16.4769 183.089 16.4998C181.344 19.9908 177.114 19.743 174.225 17.8908C173.201 17.2548 172.325 16.4076 171.656 15.406C171.1 11.633 174.45 8.30972 178.009 8.08486C178.28 5.74103 180.201 3.35909 182.533 3.35909C183.344 3.3568 184.14 3.57175 184.839 3.98221C185.538 4.39228 186.114 4.98262 186.508 5.69148C186.569 5.80239 186.624 5.9171 186.672 6.03448C187.731 4.73871 189.408 3.36671 191.07 3.36671C192.234 3.36823 193.369 3.73258 194.317 4.40867C195.265 5.08476 195.979 6.03943 196.36 7.1397C196.36 6.97201 197.884 6.43084 198.033 6.37748C198.652 6.1976 199.294 6.11032 199.938 6.11833C201.062 6.14767 202.16 6.45867 203.132 7.02271C204.104 7.58675 204.919 8.38556 205.503 9.34634C205.561 9.68095 205.589 10.0201 205.586 10.3601C205.587 11.3758 205.348 12.3773 204.889 13.2832C205.412 13.4776 205.893 13.7699 206.307 14.1445C206.194 14.6647 206.015 15.1682 205.773 15.6423C206.593 15.9529 207.308 16.488 207.839 17.1858C207.839 17.3039 207.839 17.4221 207.839 17.5402C207.84 18.4297 207.575 19.2994 207.077 20.0365C207.625 20.2438 208.144 20.522 208.62 20.8635C208.492 21.4066 208.268 21.9226 207.961 22.388C209.355 22.904 210.534 23.8766 211.307 25.1472C211.37 25.5249 211.403 25.9075 211.402 26.2905C211.405 27.9186 210.814 29.4922 209.741 30.7171C208.668 31.9416 207.186 32.7336 205.571 32.9447Z" fill="#04D99D"/>
<path d="M176.877 22.9749C176.877 22.9749 181.656 23.436 182.418 27.5482" stroke="black" stroke-miterlimit="10"/>
<path d="M174.651 34.9646C173.54 35.1426 172.405 35.1052 171.309 34.8541C171.102 34.8034 170.911 34.7028 170.751 34.5618C170.592 34.4204 170.47 34.2424 170.395 34.0431C170.32 33.8438 170.294 33.6292 170.321 33.4181C170.347 33.2065 170.425 33.0049 170.546 32.8304C171.69 31.2259 172.833 29.6405 174.095 28.1313C174.289 27.9411 174.422 27.6968 174.476 27.43C174.476 27.43 174.426 22.4032 175.749 18.6645" stroke="black" stroke-miterlimit="10"/>
<path d="M179.063 27.4338C179.231 26.6366 178.817 25.8747 178.139 25.7326C177.462 25.59 176.777 26.1209 176.609 26.9178C176.442 27.7151 176.855 28.4766 177.533 28.6191C178.21 28.7616 178.896 28.2307 179.063 27.4338Z" fill="black"/>
<path d="M203.285 48.3492C201.528 43.2538 200.72 40.6508 200.72 40.6508" stroke="black" stroke-linecap="round" stroke-linejoin="round"/>
<path d="M183.943 46.6456L183.916 64.2301" stroke="black" stroke-miterlimit="10"/>
<path d="M172.899 35.0751C172.899 35.0751 174.127 45.1898 179.035 47.1068C183.944 49.0238 188.818 43.1089 188.818 43.1089" stroke="black" stroke-linecap="round" stroke-linejoin="round"/>
<path d="M173.904 39.6751C174.54 40.1203 175.277 40.3996 176.048 40.488C176.82 40.5765 177.601 40.4713 178.321 40.182" stroke="black" stroke-linecap="round" stroke-linejoin="round"/>
<path d="M186.215 5.55047C186.216 4.77377 186.013 4.0104 185.628 3.33622C185.127 2.46995 184.357 1.79157 183.434 1.40512C182.511 1.01867 181.487 0.945503 180.519 1.19665C179.55 1.44781 178.691 2.00995 178.073 2.79619C177.454 3.5828 177.111 4.55005 177.095 5.55047" stroke="black" stroke-miterlimit="10" stroke-linecap="round"/>
<path d="M183.696 12.2656C183.691 11.1653 183.418 10.0834 182.9 9.11268C182.382 8.14237 181.635 7.31346 180.723 6.69759C176.15 3.61821 169.56 8.32111 170.868 13.6224C171.325 15.4708 172.655 16.8923 174.221 17.8946C177.106 19.7468 181.341 20.0022 183.078 16.5074L183.105 16.4502C183.105 16.4502 183.486 19.6668 186.783 20.0555C187.209 20.1211 187.645 20.0921 188.058 19.9705C188.472 19.8493 188.854 19.6382 189.177 19.3528C189.501 19.0673 189.757 18.7144 189.929 18.3188C190.101 17.9232 190.183 17.4948 190.171 17.0638C192.789 20.2384 193.178 24.686 191.509 28.4018C191.81 27.7311 193.456 27.9941 193.902 28.1922C195.891 29.0726 196.783 31.5765 196.158 33.5964C195.575 35.4791 193.959 36.9768 192.248 38.0249C192.103 38.1095 191.981 38.228 191.892 38.3706C191.802 38.5127 191.749 38.6743 191.736 38.8416C191.723 39.0089 191.751 39.177 191.817 39.3317C191.882 39.4861 191.985 39.6221 192.115 39.7285C193.358 40.6729 194.84 41.2514 196.393 41.3993C197.947 41.5471 199.512 41.2582 200.911 40.565C202.309 39.8718 203.487 38.802 204.31 37.4757C205.134 36.1494 205.57 34.6201 205.572 33.059V32.9523C207.055 32.7667 208.433 32.0895 209.487 31.0288C210.54 29.9682 211.208 28.5852 211.383 27.1007C211.558 25.6163 211.232 24.1159 210.455 22.8388C209.678 21.5617 208.495 20.5818 207.096 20.0555C207.595 19.3184 207.86 18.4488 207.858 17.5592C207.858 16.3462 207.377 15.183 206.519 14.3255C205.661 13.4676 204.498 12.9859 203.285 12.9859" stroke="black" stroke-linecap="round" stroke-linejoin="round"/>
<path d="M186.214 3.19901C187.24 1.78508 188.314 1 190.189 1C191.356 1.00114 192.492 1.36625 193.441 2.04462C194.389 2.72338 195.102 3.68111 195.479 4.78443C195.43 4.63198 197.004 4.06794 197.16 4.02221C197.779 3.84347 198.421 3.75619 199.065 3.76305C200.794 3.81107 202.437 4.52337 203.653 5.75245C204.869 6.98116 205.564 8.63175 205.594 10.3601C205.593 11.3757 205.354 12.3769 204.896 13.2832" stroke="black" stroke-linecap="square" stroke-linejoin="round"/>
</svg>
