<svg width="30" height="30" viewBox="0 0 30 30" fill="none" xmlns="http://www.w3.org/2000/svg">
<path d="M12.6568 0L12.2009 4.52658C11.2693 4.7749 10.3863 5.1416 9.57128 5.61403L6.04925 2.7357L2.7357 6.04925L5.61403 9.57247C5.13604 10.397 4.76954 11.2812 4.52413 12.2021L0 12.6568V17.3444L4.52658 17.7991C4.77478 18.7302 5.14198 19.6129 5.61403 20.4275L2.7357 23.9508L6.04925 27.2643L9.5725 24.386C10.3871 24.858 11.2698 25.2252 12.2009 25.4734L12.6557 30H17.3432L17.7979 25.4759C18.7188 25.2305 19.603 24.864 20.4275 24.386L23.9508 27.2643L27.2643 23.9508L24.386 20.4287C24.8584 19.6137 25.2251 18.7307 25.4734 17.7991L30 17.3444V12.6568L25.4759 12.2021C25.2306 11.2808 24.8641 10.3961 24.386 9.5713L27.2643 6.04927L23.9508 2.7357L20.4287 5.61403C19.6039 5.1359 18.7192 4.7694 17.7979 4.52413L17.3432 0H12.6568ZM15 10.6636C17.3947 10.6636 19.3364 12.6053 19.3364 15C19.3364 17.3947 17.3947 19.3364 15 19.3364C12.6053 19.3364 10.6636 17.3947 10.6636 15C10.6636 12.6053 12.6053 10.6636 15 10.6636Z" fill="#0E5959"/>
</svg>
