<svg id="Layer_1" data-name="Layer 1" xmlns="http://www.w3.org/2000/svg" viewBox="0 0 509.31 214.86"><defs><style>.cls-1{fill:#64b49b;}.cls-2{fill:#231f20;}</style></defs><path class="cls-1" d="M75.32,337.13c0,8.55.05,17.1,0,25.65a9.44,9.44,0,0,0,5.15,9c3.66,2,7.23,1.36,10.54-1.07l88.63-65.05c7-5.15,14.09-10.23,21-15.48a4.21,4.21,0,0,1,5.55-.19c3,2,6.06,3.83,9,5.88,1.58,1.09,1.45,1.69,0,2.75q-19.94,14.25-39.81,28.59c-10,7.22-20.12,14.39-30.14,21.65a11,11,0,0,0-2.92,15.24q21.9,34.38,43.85,68.72,12.08,18.91,24.19,37.81c.93,1.44.8,2.25-.7,3-2.62,1.41-5.22,2.87-7.76,4.42-1.6,1-2.49.61-3.48-.94-8.07-12.69-16.23-25.32-24.34-38q-16.14-25.15-32.25-50.33c-3-4.63-5.91-9.27-8.92-13.86-3.95-6-10.16-7.34-16-3.14-10.86,7.8-21.57,15.79-32.33,23.7-1.85,1.36-3.74,2.66-5.49,4.13a10.78,10.78,0,0,0-3.78,8.72c0,15.12,0,30.23,0,45.34,0,.54,0,1.07,0,1.6s.28,1.38-.38,1.67-1-.5-1.43-.91a98.2,98.2,0,0,1-14-18.63,104.52,104.52,0,0,1-14.33-43.34,107,107,0,0,1,8.63-54.75,110.6,110.6,0,0,1,19.43-29.52c.47-.52.9-1.57,1.71-1.2s.36,1.38.37,2.11Q75.34,324,75.32,337.13Z" transform="translate(-44.6 -275.45)"/><path class="cls-1" d="M141.29,358.21a9.89,9.89,0,0,1,4.34-8.73l54.67-39.3c5.2-3.74,10.45-7.43,15.61-11.24a2.35,2.35,0,0,1,3.4.1c4.46,3.63,4.52,3.64-.13,7q-31.87,22.94-63.8,45.82c-5.58,4-6.77,9.81-3.1,15.56q31.66,49.59,63.31,99.2c1.41,2.22,1.31,2.24-1.83,4.41-1.8,1.25-2.35.09-3.13-1.14q-21.36-33.5-42.76-67-12.21-19.1-24.4-38.2C142.14,362.63,141.09,360.44,141.29,358.21Z" transform="translate(-44.6 -275.45)"/><path class="cls-1" d="M151,360.91a10.17,10.17,0,0,1,4.59-8.11l46.49-33.41c6.82-4.9,13.67-9.76,20.43-14.74,1.48-1.08,2.37-1,3.65.28,3.69,3.75,3.73,3.68-.55,6.75q-30.21,21.72-60.42,43.45c-6.08,4.38-6.9,9.34-2.9,15.59q26.52,41.47,53,83c1.89,3,3.82,5.9,5.71,8.86,1.19,1.87.79,2.6-1.81,4.42-1.72,1.2-2.29,0-3-1.11Q199,439,181.77,412q-14.28-22.38-28.56-44.78A12.7,12.7,0,0,1,151,360.91Z" transform="translate(-44.6 -275.45)"/><path class="cls-1" d="M76.18,431.73c0-8,0-16,0-24a9.57,9.57,0,0,1,4.23-8.18q18.25-13.44,36.52-26.87c5.62-4.11,11.81-3,15.58,2.9q25.72,40.08,51.39,80.2,6.93,10.8,13.82,21.61c.51.82,1.91,1.81.1,2.78-1.47.79-2.75,1.73-4.15-.5-7.36-11.7-14.87-23.29-22.32-34.93l-32.24-50.32c-1.93-3-3.85-6.05-5.85-9A9.9,9.9,0,0,0,119,382.79q-17.11,12.49-34.14,25.09A10.62,10.62,0,0,0,80.35,417q0,21.3,0,42.59c0,.61,0,1.22,0,1.83s-.4,1.1-1,.53c-1.52-1.45-3.25-2.61-3.21-5.21C76.26,448.37,76.18,440.05,76.18,431.73Z" transform="translate(-44.6 -275.45)"/><path class="cls-1" d="M230.22,309.71c1.13.19,1.5,1,2,1.64,3,3.64,3,3.64-.88,6.42L174.3,358.82c-5.15,3.71-6.15,8.68-2.66,14.16q16,25.11,32,50.16,11.16,17.46,22.27,34.94c.95,1.5-.93,5.05-2.7,5.15-1,0-1.2-.86-1.58-1.46q-6-9.24-11.87-18.5-17.85-28-35.7-56Q168.56,378.62,163,370c-3.4-5.27-2.59-10.1,2.44-13.76s10-7.22,15.06-10.82l48-34.48C229.06,310.45,229.7,310.05,230.22,309.71Z" transform="translate(-44.6 -275.45)"/><path class="cls-1" d="M81.26,438.9c0-7.25.06-14.51,0-21.76a10,10,0,0,1,4.26-8.65q16.69-12.3,33.42-24.54c5.32-3.87,10.54-2.85,14.11,2.7q25.8,40.19,51.54,80.4c2.72,4.24,5.46,8.47,8.14,12.73.46.73,1.72,1.64.26,2.45-1.25.68-2.7,1.8-4-.18-1.87-3-3.81-5.9-5.71-8.86q-22.12-34.5-44.24-69c-1.52-2.38-3-4.77-4.54-7.15-3.3-5.2-9.33-6.36-14.27-2.73-10.1,7.4-20.17,14.84-30.29,22.22a10.36,10.36,0,0,0-4.55,9q.06,18.78,0,37.56c0,1.1.7,2.51-.66,3.27-.59.33-3.24-2.35-3.39-3.38a14.09,14.09,0,0,1-.07-2.06Q81.26,449.89,81.26,438.9Z" transform="translate(-44.6 -275.45)"/><path class="cls-1" d="M170.69,367.21a8.77,8.77,0,0,1,3.64-6.95q18.13-13,36.24-26.06,11.52-8.29,23.06-16.56c2.48-1.78,2.53-1.8,4.32.55l.28.36c2.22,3,2.23,3-.8,5.2q-26.87,19.31-53.74,38.59c-4.66,3.34-5.75,7.93-2.64,13,5,8,10.15,16,15.25,23.93q17.23,27,34.49,54c.94,1.48-.83,5-2.57,5.05-.95.05-1.21-.85-1.6-1.45q-6.13-9.53-12.23-19.07-18-28.17-35.95-56.35c-2.14-3.34-4.25-6.7-6.4-10A10.45,10.45,0,0,1,170.69,367.21Z" transform="translate(-44.6 -275.45)"/><path class="cls-1" d="M76.17,336.45c0-8.85.17-17.71-.08-26.55-.1-3.69,2.27-5.23,4.55-7.09.58-.47,1-.3,1.07.46s0,1.37,0,2.06q0,23.58,0,47.16c0,5.24,2.37,8.38,7.07,9.64a8.15,8.15,0,0,0,7.11-1.68c7.17-5.18,14.3-10.43,21.44-15.67l78.48-57.56c.73-.54,1.45-1.33,2.42-1.14,1.34.27,3,.62,3.45,1.91.38,1.08-1.22,1.54-2,2.14q-24.08,17.7-48.18,35.37Q121.12,347.78,90.73,370c-4.89,3.58-10.73,2.51-13.65-2.38a7.76,7.76,0,0,1-.91-4.18Q76.19,350,76.17,336.45Z" transform="translate(-44.6 -275.45)"/><path class="cls-1" d="M86.72,445.14c0-6.71,0-13.43,0-20.14a8.84,8.84,0,0,1,4.06-7.71c9.89-7.17,19.7-14.44,29.53-21.69,5.33-3.93,10.17-2.93,13.72,2.64q15.87,24.92,31.84,49.75,10.82,16.86,21.59,33.75c.46.71,1.73,1.66.29,2.45-1.25.69-2.7,1.61-3.93-.36-3.94-6.27-8-12.49-12-18.72q-18.53-28.92-37-57.83a8.31,8.31,0,0,0-11.49-2.56c-4,2.51-7.71,5.47-11.53,8.27-5.66,4.14-11.27,8.38-17,12.46A9.87,9.87,0,0,0,90.46,434q0,16.71,0,33.42c0,.91.52,2.43-.64,2.57s-2.37-1-2.87-2.26a6.44,6.44,0,0,1-.2-2.25C86.71,458.73,86.72,451.93,86.72,445.14Z" transform="translate(-44.6 -275.45)"/><path class="cls-1" d="M240.56,323.26a1.62,1.62,0,0,1,1.53.84c3.21,3.82,3.11,4.36-1,7.32q-23.82,17.07-47.6,34.2c-5,3.62-5.82,7.6-2.53,12.78q12.67,20,25.45,40,9.36,14.65,18.76,29.3a4,4,0,0,1-1.84,5.45c-1.09.44-1.31-.56-1.67-1.12q-4.75-7.29-9.43-14.62-16.46-25.75-32.88-51.53c-2.42-3.79-4.87-7.57-7.27-11.38-2.49-4-1.8-8,1.95-10.68q27.3-19.68,54.65-39.3C239.33,324,240.05,323.58,240.56,323.26Z" transform="translate(-44.6 -275.45)"/><path class="cls-1" d="M82.67,328q0-12.13,0-24.26A7.33,7.33,0,0,1,87,297.47c.7-.24,1,0,1.11.65s.06,1.37.06,2.06q0,21.17,0,42.34c0,4.93,2.6,8.24,7,9.09,2.63.5,4.77-.62,6.79-2.09l25.08-18.44,63.51-46.57a4.06,4.06,0,0,1,5.19.29c1.12,1,0,1.29-.52,1.67q-7.64,5.65-15.3,11.27l-56.12,41.15q-14,10.29-28.05,20.59a8,8,0,0,1-8.81,1c-3.17-1.55-4.33-4.36-4.34-7.72C82.65,344.5,82.67,336.26,82.67,328Z" transform="translate(-44.6 -275.45)"/><path class="cls-1" d="M91.81,451.49c0-5.73,0-11.45,0-17.17a9.06,9.06,0,0,1,4-8c9-6.53,18-13.18,27-19.75,4.23-3.09,8.52-2.32,11.37,2.12q24.12,37.56,48.17,75.17c.36.57,1.32,1.36.37,1.93s-2.39,1.27-3.6.16a8.46,8.46,0,0,1-1.22-1.66c-13.7-21.39-27.51-42.73-41-64.23-3.38-5.37-8.52-7-14-2.8-7.76,6-15.8,11.74-23.75,17.55-2.67,2-3.55,4.66-3.56,7.78,0,9.47,0,18.93,0,28.39,0,.9.66,2.57-.8,2.55a3,3,0,0,1-2.82-2.59,14.14,14.14,0,0,1-.07-2.06Z" transform="translate(-44.6 -275.45)"/><path class="cls-1" d="M190.42,373a7.34,7.34,0,0,1,3.34-5.74l38.5-27.66c3.84-2.76,7.73-5.47,11.51-8.32,1.53-1.16,2.3-.81,3.11.77,2.44,4.79,2,4-1.45,6.47L203.05,369c-5,3.57-5.66,7.19-2.38,12.32q19,29.71,38,59.42c1.26,2,2.27,3.7.19,5.84-1.16,1.19-1.72,1.44-2.68-.09-3.74-6-7.56-11.84-11.34-17.75L191.93,377.2A8.07,8.07,0,0,1,190.42,373Z" transform="translate(-44.6 -275.45)"/><path class="cls-1" d="M89.52,320.5q0-11.22,0-22.43a5.74,5.74,0,0,1,4-5.14c.76-.18,1,.18,1,.8s0,1.22,0,1.83q0,17.63,0,35.25a21.42,21.42,0,0,0,.36,4.08c1.07,5.72,7,8,11.78,4.54,7.47-5.43,14.9-10.92,22.34-16.38q27.78-20.4,55.5-40.85c1.92-1.42,3.51-.76,5.07.1s0,1.33-.52,1.71q-7,5.28-14.17,10.49l-51.31,37.65q-11.26,8.27-22.52,16.53c-2.43,1.78-5,2.55-7.9,1s-3.79-3.95-3.77-7C89.54,335.3,89.52,327.9,89.52,320.5Z" transform="translate(-44.6 -275.45)"/><path class="cls-1" d="M200.45,376c-.2-2.69,1.58-4.19,3.45-5.56,3.94-2.89,7.93-5.71,11.89-8.56q15.81-11.36,31.61-22.72c2.18-1.57,2.25-1.56,3.32.91a14.68,14.68,0,0,0,.67,1.45c.9,1.61.58,2.65-1,3.78q-19.11,13.62-38.1,27.43c-4.59,3.33-5.13,6.41-2.11,11.14l33.13,51.92a4.51,4.51,0,0,1-1.16,5.76c-1.11.71-1.29-.38-1.65-.93q-6.13-9.53-12.22-19.09Q215.16,401,202,380.41C201.17,379.05,200.31,377.7,200.45,376Z" transform="translate(-44.6 -275.45)"/><path class="cls-1" d="M97.29,457.12c0-5,.11-10.07,0-15.11a6.81,6.81,0,0,1,2.9-6.1c8.3-6.12,16.57-12.27,24.92-18.3a6.47,6.47,0,0,1,9.43,1.8q20.82,32.49,41.57,65c.51.81,2.34,1.81.58,3-1.45.94-2.76.53-3.82-1.12q-12.59-19.8-25.31-39.53c-3.62-5.65-7.2-11.33-10.85-17-2.63-4.06-7-4.88-10.9-2.06-7,5.12-14,10.36-21.07,15.41a9.32,9.32,0,0,0-4.12,8.19c0,7.48,0,15,0,22.44,0,.95.75,2.72-.93,2.73s-2.36-1.35-2.34-3.09C97.34,468,97.3,462.54,97.29,457.12Z" transform="translate(-44.6 -275.45)"/><path class="cls-1" d="M96.38,313.41q0-10,0-19.92c0-1-.21-2.07.73-2.75,1.09-.8,2.28-2.13,3.59-1.68s.69,2.15.7,3.3q.06,15.21,0,30.44c0,2.95.62,5.52,3.49,6.89s5.38.7,7.9-1.16c21.79-16.09,43.66-32.09,65.44-48.21,1.88-1.39,3.54-.92,5.09-.12s-.11,1.29-.59,1.65c-5.27,3.92-10.57,7.78-15.86,11.67l-59.22,43.54c-.74.54-1.49,1.07-2.27,1.55-4.11,2.52-8.94,0-9-4.83C96.33,327,96.38,320.2,96.38,313.41Z" transform="translate(-44.6 -275.45)"/><path class="cls-1" d="M210.11,378.87a5.53,5.53,0,0,1,2.25-4q19.41-14,38.82-28c1.29-.92,2.07-.74,2.49.8,0,.15.1.29.15.43,1.44,4,1.41,4-2,6.43q-15.06,10.82-30.09,21.69c-4.42,3.21-4.82,5.84-1.83,10.51q13.44,21,26.86,42.06c1.44,2.27,1.26,3.92-.43,6-1.07,1.29-1.41,0-1.79-.54-2.84-4.34-5.63-8.72-8.43-13.09q-12-18.71-23.9-37.43C211.25,382.19,210.21,380.76,210.11,378.87Z" transform="translate(-44.6 -275.45)"/><path class="cls-1" d="M102.38,463.3c0-4.19,0-8.39,0-12.59a6.75,6.75,0,0,1,2.93-5.87c6.91-5,13.76-10.16,20.67-15.19,4.15-3,7-2.47,9.74,1.8q17.61,27.46,35.15,55c.4.62,1.41,1.42.23,2.09a2.43,2.43,0,0,1-3.17-.29,21.14,21.14,0,0,1-1.78-2.65Q152,463.39,137.77,441.21c-2.84-4.43-6.45-5.13-10.65-2-6,4.43-12,8.9-18.08,13.29a6.84,6.84,0,0,0-3.05,6q.09,9.15,0,18.31c0,.89.66,2.51-1,2.45a2.51,2.51,0,0,1-2.58-2.66c0-3.28,0-6.56,0-9.84C102.37,465.59,102.38,464.45,102.38,463.3Z" transform="translate(-44.6 -275.45)"/><path class="cls-1" d="M103.22,306.43c0-5.65,0-11.29,0-16.94a3.71,3.71,0,0,1,3.56-3.91c1.33-.13,1,.85,1.06,1.53,0,2.51,0,5,0,7.55,0,6.1,0,12.21,0,18.31,0,2.74.75,5,3.3,6.29s4.71.43,6.82-1.13q26.35-19.42,52.71-38.85c1.48-1.1,2.91-2,4.81-1.2.48.19,1.22,0,1.39.59.21.75-.58,1-1,1.34q-6.33,4.73-12.7,9.39-25.65,18.84-51.29,37.69a6.14,6.14,0,0,1-5.33,1.36c-2.1-.49-3.29-2.21-3.31-4.86C103.2,317.87,103.22,312.15,103.22,306.43Z" transform="translate(-44.6 -275.45)"/><path class="cls-1" d="M257.12,360c0,1.29-1.11,1.74-1.94,2.33-7.85,5.69-15.74,11.33-23.59,17-4.64,3.36-5,5.57-1.94,10.37q10.32,16.1,20.59,32.22c.45.7,1.11,1.38.95,2.26-.28,1.5-.6,3.43-1.92,3.94-1,.39-1.58-1.54-2.2-2.51q-12.84-20.06-25.62-40.14c-2.17-3.41-1.75-5.44,1.47-7.76q15-10.76,29.92-21.55c2.94-2.12,3-2.13,3.77,1.34C256.8,358.3,257,359.13,257.12,360Z" transform="translate(-44.6 -275.45)"/><path class="cls-1" d="M107.84,468.47c0-3.36,0-6.72,0-10.08a4.92,4.92,0,0,1,2.19-4.28c6.23-4.55,12.41-9.16,18.65-13.7a4.64,4.64,0,0,1,7.12,1.31q14.44,22.56,28.83,45.16c.45.71,1.82,1.61.56,2.48s-2.6.54-3.52-.92c-3-4.7-6-9.38-9-14.08-4.76-7.46-9.49-14.94-14.3-22.38-2.48-3.84-5.68-4.42-9.33-1.76-5.12,3.73-10.21,7.51-15.32,11.25a6.12,6.12,0,0,0-2.65,5.29c0,4.2,0,8.4,0,12.6,0,.86.52,2.31-1,2.3a2.11,2.11,0,0,1-2.15-2.43C107.87,475.64,107.85,472.05,107.84,468.47Z" transform="translate(-44.6 -275.45)"/><path class="cls-1" d="M114.3,294.25c0,2.89,0,5.79,0,8.69,0,2.4.47,4.56,2.89,5.77s4.41.24,6.34-1.18q20.16-14.89,40.34-29.77a5.42,5.42,0,0,1,1.72-1.09c1.34-.31,3.13-.4,3.8.59.55.8-1.2,1.47-2,2.06q-25.23,18.63-50.5,37.2c-1.45,1.07-3,2-4.84,1s-2.33-2.54-2.33-4.39q0-13.5,0-27a3.57,3.57,0,0,1,3.55-3.37c1.26,0,1,.94,1,1.63C114.31,287.69,114.3,291,114.3,294.25Z" transform="translate(-44.6 -275.45)"/><path class="cls-1" d="M112.93,474.05c.07-11-1-8.38,7.35-14.75q4.92-3.75,10-7.31c2.68-1.9,4.61-1.54,6.35,1.17q10.88,16.95,21.65,33.94c.51.8,2.08,1.91.69,2.84s-2.65-.08-3.54-1.47q-7.57-12-15.24-23.92a24.21,24.21,0,0,0-2-2.81,4.68,4.68,0,0,0-6.4-1c-4.74,3.33-9.37,6.81-14,10.28a4.58,4.58,0,0,0-1.66,3.86c0,2.13,0,4.27-.05,6.4,0,.89.41,2.27-1.1,2.31s-2.06-1-2-2.47C112.94,478.78,112.93,476.41,112.93,474.05Z" transform="translate(-44.6 -275.45)"/><path class="cls-1" d="M258.7,368.47c.14,1.34-.62,2.1-1.61,2.82-5.59,4-11.15,8-16.72,12-3.19,2.28-3.76,4.73-1.67,8,4.84,7.68,9.67,15.37,14.65,22.95,1.46,2.21.49,4-.44,5.74-.67,1.27-1.21.09-1.58-.47-2-3-3.87-6-5.8-9.06q-7.08-11.08-14.16-22.18c-2.31-3.63-2.12-4.61,1.37-7.15Q243.93,373,255.17,365c2.47-1.78,2.65-1.7,3.13,1.27C258.42,367,258.57,367.72,258.7,368.47Z" transform="translate(-44.6 -275.45)"/><path class="cls-1" d="M161.66,276.17a8.42,8.42,0,0,1-2.88,2.55q-18.19,13.5-36.44,27c-1.27.94-2.52,1.81-4.17,1s-1.61-2.27-1.61-3.76v-19c0-1.16,0-2.27,1.33-2.87,2.06-.89,2.82-.49,2.85,1.76,0,3.43,0,6.87,0,10.3,0,2.2.59,4.08,2.72,5.14s3.65.09,5.26-1.11c8.87-6.61,17.8-13.14,26.63-19.8A6.82,6.82,0,0,1,161.66,276.17Z" transform="translate(-44.6 -275.45)"/><path class="cls-1" d="M118.41,478.44c-1.08-3.58,1-6.19,4.42-8.34,3.1-1.93,5.91-4.31,8.88-6.44s3.85-1.88,5.71,1q7.56,11.73,15,23.49c.34.54,1.13,1.14.53,1.79s-1.45.33-2.18.15c-.91-.22-1.27-1.05-1.72-1.75q-4.49-7-9-14.08c-2.24-3.52-4.41-3.94-7.75-1.5-2.84,2.06-5.62,4.2-8.52,6.17a5.46,5.46,0,0,0-2.71,4.72c0,.78.15,1.86-1.2,1.71a1.67,1.67,0,0,1-1.54-1.92C118.42,482,118.41,480.56,118.41,478.44Z" transform="translate(-44.6 -275.45)"/><path class="cls-1" d="M259.61,377.61a3.37,3.37,0,0,1-1.76,3.43c-2.77,1.89-5.47,3.88-8.16,5.88-2.88,2.16-3.23,4.25-1.3,7.28,2.46,3.86,4.85,7.75,7.41,11.54,1.46,2.16.53,4.16-.22,6.07-.5,1.25-1.09,0-1.37-.44-1.65-2.47-3.25-5-4.84-7.48q-4.25-6.64-8.46-13.31c-1.66-2.61-1.44-3.76,1-5.55q7.32-5.29,14.63-10.59c2.25-1.63,2.34-1.6,2.78,1.13C259.44,376.25,259.52,376.93,259.61,377.61Z" transform="translate(-44.6 -275.45)"/><path class="cls-1" d="M152.89,275.72a13.88,13.88,0,0,1-3.81,3.25q-10.74,8-21.52,15.95c-.94.69-1.89,1.47-3.12.92s-1-1.94-1-3c0-3.82.06-7.63,0-11.45,0-2,1.12-2.55,2.7-2.61,1.85-.07,1.37,1.45,1.45,2.5s0,2.29.06,3.43c.26,2.92,2.77,4.32,5.24,2.72,2.88-1.87,5.55-4,8.3-6.1,2-1.46,4-2.87,5.84-4.42A6.27,6.27,0,0,1,152.89,275.72Z" transform="translate(-44.6 -275.45)"/><path class="cls-1" d="M123.86,484.1a3.17,3.17,0,0,1,1.51-3.11c2.79-2,5.51-4.08,8.3-6.07,2.12-1.51,3-1.31,4.44.91Q142,481.89,145.8,488c.37.58,1.25,1.31.38,1.95a1.84,1.84,0,0,1-2.48-.44,22.84,22.84,0,0,1-1.67-2.44c-.59-.89-1.11-1.83-1.75-2.68-1.54-2.06-3.19-2.39-5.33-1a45.62,45.62,0,0,0-4.43,3.23c-2,1.63-3.9.84-5.8.1C123.57,486.27,123.94,485,123.86,484.1Z" transform="translate(-44.6 -275.45)"/><path class="cls-1" d="M257,403.16c-2.33-3.65-4.67-7.3-7-11a2,2,0,0,1,.51-2.85c2.5-1.88,5.06-3.68,7.59-5.51.93-.68,1.47-.37,1.44.71-.07,2.44.65,5-1.7,7a3.18,3.18,0,0,0-.41,4.4c1.69,2.45.64,4.74.21,7.09Z" transform="translate(-44.6 -275.45)"/><path class="cls-1" d="M143.59,276.12c-4.05,3-7.56,5.7-11.11,8.32-1.14.84-2.06.71-2.17-.91-.08-1.37,0-2.75,0-4.12,0-1.53,1-2,2.22-2.08a37.62,37.62,0,0,0,9.55-1.39A6.59,6.59,0,0,1,143.59,276.12Z" transform="translate(-44.6 -275.45)"/><path class="cls-2" d="M287.2,335.45h5.68V365l34.66-29.5h7.68l-26.64,22.66,27.89,32.19h-7.35l-24.8-28.58-11.44,9.76V390.3H287.2Z" transform="translate(-44.6 -275.45)"/><path class="cls-2" d="M341.73,335.45h5.68V390.3h-5.68Z" transform="translate(-44.6 -275.45)"/><path class="cls-2" d="M359.77,335.45h6.34l34.74,46.4H401v-46.4h5.67V390.3h-6.34l-34.74-46.4h-.17v46.4h-5.67Z" transform="translate(-44.6 -275.45)"/><path class="cls-2" d="M419.05,335.45h5.68V390.3h-5.68Z" transform="translate(-44.6 -275.45)"/><path class="cls-2" d="M437,335.45h8.35L466,383.54l20.54-48.09h8.35V390.3h-5.68V342.9H489l-20.38,47.4h-5.34l-20.46-47.4h-.17v47.4H437Z" transform="translate(-44.6 -275.45)"/><path class="cls-2" d="M524.18,335.45h6.35l23.38,54.85h-6.1l-7.26-17.05H513.41l-7.18,17.05h-6.1Zm-9,33.34h23.47L527.1,340.68Z" transform="translate(-44.6 -275.45)"/><path class="cls-2" d="M286.84,401.81h12.6c5.08,0,8.42,2.85,8.42,7.75s-3.34,7.75-8.42,7.75h-9.9v11.63h-2.7Zm2.7,13.3h9.3c3.73,0,6.32-1.82,6.32-5.55s-2.59-5.55-6.32-5.55h-9.3Z" transform="translate(-44.6 -275.45)"/><path class="cls-2" d="M311.87,401.81h2.71v11.78h16.84V401.81h2.7v27.13h-2.7V415.79H314.58v13.15h-2.71Z" transform="translate(-44.6 -275.45)"/><path class="cls-2" d="M347.76,417.77l-11.17-16h3.22l9.34,13.75,9.29-13.75h3.22l-11.2,16v11.17h-2.7Z" transform="translate(-44.6 -275.45)"/><path class="cls-2" d="M365.4,420c-.12,5.59,4.09,7.29,9.26,7.29,3,0,7.51-1.55,7.51-5.5,0-3.08-3.22-4.3-5.84-4.91L370,415.41c-3.34-.79-6.4-2.32-6.4-6.53,0-2.66,1.79-7.64,9.78-7.64,5.6,0,10.53,2.89,10.49,8.44h-2.71c-.16-4.15-3.73-6.24-7.74-6.24-3.7,0-7.12,1.37-7.12,5.4,0,2.55,2,3.61,4.3,4.14l6.91,1.64c4,1,7.35,2.69,7.35,7.14,0,1.86-.8,7.75-10.85,7.75-6.71,0-11.64-2.89-11.32-9.5Z" transform="translate(-44.6 -275.45)"/><path class="cls-2" d="M389.36,401.81h2.7v27.13h-2.7Z" transform="translate(-44.6 -275.45)"/><path class="cls-2" d="M409.86,401.24c8.9,0,13.35,6.73,13.35,14.13s-4.45,14.14-13.35,14.14-13.38-6.73-13.38-14.14S400.92,401.24,409.86,401.24Zm0,26.06c7.47,0,10.65-6,10.65-11.93s-3.18-11.93-10.65-11.93-10.68,6-10.68,11.93S402.36,427.3,409.86,427.3Z" transform="translate(-44.6 -275.45)"/></svg>