<svg width="239" height="242" viewBox="0 0 239 242" fill="none" xmlns="http://www.w3.org/2000/svg">
<path d="M34.7109 37.5543C34.7992 37.45 34.9035 37.3537 34.9998 37.2547C53.8519 18.5311 84.3153 16.1237 108.64 23.763C120.532 27.4944 129.862 37.9796 141.043 43.1821C144.763 44.9074 148.685 46.0442 152.972 46.1619C164.191 46.4695 174.668 39.0522 185.856 39.9055C200.14 40.9754 208.552 55.4194 210.585 68.2585C213.939 89.4885 204.224 112.524 192.129 129.485C185.49 138.804 178.019 147.406 170.851 156.297C165.29 163.217 161.625 173.684 168.978 180.873C178.742 190.414 181.745 169.299 193.255 174.12C221.91 186.116 218.642 211.834 212.137 222.844C206.198 232.915 194.75 239.671 183.077 240.626C181.224 240.778 179.362 240.778 177.508 240.626" stroke="#CCDDE2" stroke-miterlimit="10"/>
<path d="M86.3589 171.573C86.3589 171.603 86.3589 171.632 86.3589 171.661C86.3589 173.627 95.0627 181.125 96.3734 182.513" stroke="#CCDDE2" stroke-miterlimit="10"/>
<path d="M59.2756 240.53C56.6355 240.618 54.1399 240.607 51.77 240.511C24.3425 237.143 3.71184 182.513 35.9833 165.929" stroke="#CCDDE2" stroke-miterlimit="10"/>
<path d="M90.384 98.9493V43.5994C90.3822 41.9961 89.7442 40.4589 88.6104 39.3253C87.4768 38.1915 85.9398 37.5538 84.3363 37.5517H7.03437C5.43337 37.5573 3.89976 38.1966 2.76893 39.3299C1.63813 40.4632 1.00211 41.9983 1 43.5994V153.344C1.00211 154.946 1.64032 156.482 2.77434 157.614C3.90835 158.747 5.4454 159.382 7.04775 159.381H84.3497C85.0997 159.386 85.8433 159.244 86.5377 158.961" stroke="black" stroke-linecap="round" stroke-linejoin="round"/>
<path d="M82.6913 41.2563H8.69266C5.94199 41.2563 3.71216 43.4863 3.71216 46.2368V150.715C3.71216 153.466 5.94199 155.695 8.69266 155.695H82.6913C85.4421 155.695 87.6718 153.466 87.6718 150.715V46.2368C87.6718 43.4863 85.4421 41.2563 82.6913 41.2563Z" fill="#04D99D"/>
<path d="M81.1564 50.1126H11.1458C9.77043 50.1126 8.65552 51.2274 8.65552 52.6028V69.0476C8.65552 70.4227 9.77043 71.5378 11.1458 71.5378H81.1564C82.5315 71.5378 83.6466 70.4227 83.6466 69.0476V52.6028C83.6466 51.2274 82.5315 50.1126 81.1564 50.1126Z" fill="#04D99D"/>
<path d="M45.6906 59.1374C46.9151 59.1374 47.908 58.1445 47.908 56.92C47.908 55.6952 46.9151 54.7026 45.6906 54.7026C44.4658 54.7026 43.4731 55.6952 43.4731 56.92C43.4731 58.1445 44.4658 59.1374 45.6906 59.1374Z" fill="#0F8C8C"/>
<path d="M39.5008 66.9479C39.4837 66.124 39.6311 65.3053 39.9347 64.5392C40.238 63.7729 40.6914 63.075 41.2678 62.4865C41.8445 61.8978 42.5327 61.43 43.2924 61.1109C44.052 60.7915 44.8676 60.627 45.6917 60.627C46.5158 60.627 47.3314 60.7915 48.091 61.1109C48.8507 61.43 49.5389 61.8978 50.1156 62.4865C50.692 63.075 51.1454 63.7729 51.4487 64.5392C51.7523 65.3053 51.8997 66.124 51.8826 66.9479H39.5008Z" fill="#0F8C8C"/>
<path d="M16.1555 81.103H74.4637" stroke="white" stroke-miterlimit="10"/>
<path d="M16.1555 86.8431H74.4637" stroke="white" stroke-miterlimit="10"/>
<path d="M16.1555 123.804H74.4637" stroke="white" stroke-miterlimit="10"/>
<path d="M29.6978 129.231H60.9208" stroke="white" stroke-miterlimit="10"/>
<path d="M30.9311 108.536L26.2796 113.479C25.9021 113.88 25.4496 114.203 24.9478 114.429C24.4457 114.655 23.9041 114.78 23.3538 114.796C22.8036 114.813 22.2553 114.722 21.7404 114.526C21.2258 114.331 20.7545 114.037 20.3535 113.659C19.9526 113.282 19.6297 112.83 19.4037 112.328C19.1777 111.826 19.0525 111.284 19.0359 110.734C19.019 110.183 19.1108 109.635 19.3058 109.121C19.501 108.606 19.7955 108.134 20.173 107.733L24.8218 102.79L30.9311 108.536Z" fill="#04D99D"/>
<path d="M35.5772 103.587L30.9257 108.536L24.8164 102.79L29.4706 97.8446C30.234 97.0373 31.286 96.565 32.3966 96.5307C33.5074 96.4967 34.5864 96.9036 35.398 97.6627C36.202 98.4274 36.672 99.4789 36.7057 100.588C36.7391 101.698 36.3336 102.775 35.5772 103.587Z" fill="#0F8C8C"/>
<path d="M53.6558 100.367C53.4578 99.4094 55.4211 97.8259 56.0631 97.4808C58.4517 96.229 62.1269 97.1732 63.4349 99.5645C66.4387 105.048 57.9996 112.864 53.6424 114.795C53.1422 114.394 41.2206 105.476 44.0131 99.7678C46.8056 94.0597 52.963 96.9592 53.6558 100.367Z" fill="#0F8C8C"/>
<path d="M44.6609 110.141H51.158" stroke="white" stroke-linecap="round" stroke-linejoin="round"/>
<path d="M47.9084 113.388V106.891" stroke="white" stroke-linecap="round" stroke-linejoin="round"/>
<path d="M173.385 111.601C173.385 111.601 158.38 103.515 148.702 101.56C148.702 101.56 148.635 103.004 147.025 106.57C145.415 110.135 140.664 120.671 140.664 120.671L133.533 115.255L133.64 123.33L114.077 144.226L101.711 117.157L103.359 109.542L96.3134 112.24L92.5499 98.8129C92.5499 98.8129 73.9974 102.986 58.0181 115.843C42.0388 128.701 37.4622 148.744 35.9776 165.929C34.4931 183.115 36.2772 201.237 58.981 207.359C58.981 207.359 69.6482 210.034 78.3333 206.455C81.0402 205.337 84.9722 204.294 89.0967 203.379L88.963 203.427C88.963 203.427 87.0906 209.925 81.6661 213.461C81.6661 213.461 91.1697 220.683 107.408 223.831C123.647 226.979 157.962 228.862 175.258 213.857C192.553 198.851 193.259 174.112 193.259 174.112C193.259 174.112 198.876 126.347 173.385 111.601ZM84.5255 153.815C83.9368 153.796 83.3665 153.603 82.8858 153.262C82.4054 152.921 82.0358 152.446 81.8231 151.897C81.6105 151.347 81.5642 150.747 81.6899 150.172C81.8156 149.596 82.108 149.07 82.5303 148.659C82.953 148.248 83.4869 147.971 84.0657 147.861C84.6448 147.752 85.2431 147.815 85.7867 148.043C86.3299 148.271 86.7943 148.653 87.1217 149.143C87.4493 149.633 87.6253 150.209 87.6283 150.798C87.6144 151.609 87.28 152.381 86.6988 152.946C86.1175 153.511 85.3362 153.824 84.5255 153.815ZM150.468 181.352C150.013 183.663 147.576 198.284 141.552 200.001C135.529 201.718 129.583 197.984 115.532 199.442C115.532 199.442 112.504 199.557 108.31 199.931C99.5499 189.668 108.369 175.04 108.369 175.04C108.369 175.04 128.28 168.976 137.773 173.352C147.266 177.728 150.93 179.036 150.468 181.352Z" fill="#828282"/>
<path d="M167.178 221.825V240.629C136.819 240.629 95.7446 240.581 66.0703 240.543C65.7038 230.866 65.1261 208.603 67.5815 208.445C70.7244 208.253 74.0492 206.239 77.8849 210.818C81.7206 215.397 97.7775 223.588 120.27 225.513C142.762 227.439 161.73 222.14 165.942 219.848C165.945 219.851 167.178 217.652 167.178 221.825Z" fill="#828282"/>
<path d="M84.5257 145.301C87.6445 145.301 90.1829 147.773 90.1829 150.811C90.1829 153.85 87.6445 156.321 84.5257 156.321C81.4069 156.321 78.8712 153.85 78.8712 150.811C78.8712 147.773 81.4069 145.301 84.5257 145.301ZM84.5257 143.373C80.337 143.373 76.9426 146.703 76.9426 150.811C76.9426 154.92 80.337 158.25 84.5257 158.25C88.7145 158.25 92.1088 154.92 92.1088 150.811C92.1088 146.703 88.7118 143.37 84.5257 143.37V143.373Z" fill="white"/>
<path d="M122.824 109.798L117.962 115.263C117.802 115.391 117.618 115.486 117.421 115.541C117.224 115.596 117.018 115.61 116.815 115.583C116.612 115.556 116.417 115.488 116.241 115.384C116.065 115.279 115.913 115.14 115.792 114.974L112.371 107.613L119.032 102.32L122.824 109.798Z" fill="#04D99D"/>
<path d="M119.74 113.26L121.802 121.543L115.783 129.185L111.29 119.219L114.62 112.468" fill="#04D99D"/>
<path d="M140.224 53.9215C139.154 54.1623 138.218 54.9914 137.504 55.8768C136.84 56.7071 136.278 57.6141 135.83 58.5784C135.83 58.5784 133.572 48.949 132.62 40.5956C132.301 37.878 131.349 36.4229 130.191 35.69C127.802 34.1761 124.574 35.7943 124.574 35.7943L113.848 41.6361C111.79 42.77 109.525 43.4777 107.188 43.7171C106.096 43.8428 104.992 43.8428 103.9 43.7171C97.9917 40.7962 97.9061 29.2731 105.085 29.1929C105.301 29.3946 105.504 29.6099 105.692 29.8375C105.589 29.6254 105.493 29.4138 105.404 29.2036C105.805 29.2156 106.205 29.2606 106.599 29.3373C107.188 29.4523 107.736 30.0595 108.102 30.4848C106.195 26.7829 108.228 22.118 111.986 20.703C114.271 19.8444 116.825 20.0076 119.208 20.5105C119.585 20.5853 119.96 20.6736 120.337 20.7779C126.313 22.5808 131.544 25.713 135.41 30.9422C140.302 37.557 141.524 45.9319 140.224 53.9215Z" fill="#2E2E2E"/>
<path d="M72.0991 153.965C65.5538 183.12 90.6783 178.236 123.327 172.488C134.992 170.436 144.918 175.5 150.669 180.223" stroke="black" stroke-linejoin="round"/>
<path d="M92.5513 98.8102C77.7141 102.461 60.2101 111.318 50.5808 123.338C37.9744 139.053 35.3344 159.948 35.6206 179.509C35.8881 198.621 55.9144 211.821 74.0924 207.691" stroke="black" stroke-linejoin="round"/>
<path d="M100.235 91.6711H100.247" stroke="black" stroke-linejoin="round"/>
<path d="M152.274 155.04C152.274 155.04 152.809 167.689 150.67 180.223C149.699 185.945 148.171 191.642 145.788 196.104C145.148 197.282 144.208 198.271 143.062 198.968C141.917 199.666 140.607 200.048 139.267 200.076C136.823 200.12 134.378 200.023 131.946 199.784C110.981 197.816 91.3315 202.136 77.0025 206.883C76.0396 207.199 75.0713 207.466 74.0977 207.686C83.1358 215.887 106.388 231.048 150.351 224.473C209.465 215.646 190.99 137.587 190.99 137.587C189.385 129.177 184.372 121.37 178.346 115.456C171.52 108.769 158.285 104.347 149.287 101.547" stroke="black" stroke-linejoin="round"/>
<path d="M117.667 86.8511C117.667 86.8511 99.6819 83.6413 102.092 62.4301C103.162 52.9934 105.224 47.2211 107.174 43.7064" stroke="black" stroke-linejoin="round"/>
<path d="M134.7 81.2715C138.022 76.307 137.514 69.7163 138.557 68.0579C140.162 65.4847 146.582 57.4576 142.73 54.5662C141.842 53.9001 140.994 53.7637 140.224 53.9189C137.632 54.4966 135.829 58.5757 135.829 58.5757C135.829 58.5757 133.574 48.9464 132.619 40.5903C131.664 32.2342 124.571 35.7917 124.571 35.7917L113.845 41.6308C111.788 42.767 109.522 43.4758 107.184 43.7144C105.961 43.8586 104.725 43.8487 103.504 43.685C95.2118 42.6151 94.6769 26.9166 104.189 28.7061C104.777 28.8211 105.325 29.4283 105.692 29.8536C103.782 26.1516 105.817 21.4868 109.576 20.0718C111.86 19.2132 114.414 19.3763 116.798 19.8792C124.239 21.4493 130.8 24.6939 135.409 30.9422C140.304 37.5624 141.529 45.9372 140.224 53.9269" stroke="black" stroke-linejoin="round"/>
<path d="M115.42 66.9291H111.566L111.817 63.8745L112.847 51.5088" stroke="black" stroke-linejoin="round"/>
<path d="M111.809 63.8745H101.222C100.472 63.8745 99.7519 63.5762 99.2213 63.0456C98.6906 62.5149 98.3923 61.7951 98.3923 61.0445V51.5115H116.287V61.0445C116.287 61.7954 116.586 62.5151 117.117 63.0458C117.649 63.5765 118.369 63.8745 119.119 63.8745H129.618C130.369 63.8745 131.089 63.5765 131.62 63.0458C132.151 62.5151 132.45 61.7954 132.451 61.0445V51.5115H116.287" stroke="black" stroke-linejoin="round"/>
<path d="M115.42 70.615C115.42 70.615 118.151 71.5779 121.203 66.9184" stroke="black" stroke-linejoin="round"/>
<path d="M113.968 145.162L133.9 123.041L133.536 115.252L140.429 121.193L149.286 101.557L149.31 101.506C147.144 100.23 145.123 98.7227 143.283 97.0101C142.437 96.2148 141.634 95.3838 140.876 94.5171C139.982 93.502 139.148 92.4356 138.378 91.3234L137.755 90.4434" stroke="black" stroke-linejoin="round"/>
<path d="M127.042 114.487L122.939 108.835L118.563 103.069L127.748 97.5103L137.763 90.4434L140.868 94.5171L141.911 95.8893L139.378 99.1339L119.598 124.523V124.534L115.856 129.185" stroke="black" stroke-linejoin="round"/>
<path d="M107.859 111.272L118.558 103.077L105.414 89.9405L100.434 94.6375L115.854 129.193L113.968 145.165L101.715 117.157L103.355 109.544L96.3093 112.235L92.2195 98.9493C96.9199 97.1352 101.17 94.3216 104.676 90.7028L105.42 89.9325" stroke="black" stroke-linejoin="round"/>
<path d="M122.939 109.798L118.068 115.263C117.909 115.391 117.725 115.486 117.529 115.541C117.332 115.596 117.126 115.61 116.923 115.583C116.721 115.556 116.526 115.488 116.35 115.384C116.174 115.279 116.022 115.14 115.902 114.974L112.478 107.613" stroke="black" stroke-linejoin="round"/>
<path d="M119.854 113.26L121.919 121.543" stroke="black" stroke-linejoin="round"/>
<path d="M114.735 112.468L111.405 119.219" stroke="black" stroke-linejoin="round"/>
<path d="M137.754 90.4434L134.7 81.2608C133.868 82.4259 132.796 83.3993 131.557 84.1148" stroke="black" stroke-linejoin="round"/>
<path d="M107.518 81.2608L105.419 89.9325" stroke="black" stroke-linejoin="round"/>
<path d="M122.038 59.2203C122.815 59.2203 123.445 58.5904 123.445 57.8134C123.445 57.0363 122.815 56.4064 122.038 56.4064C121.261 56.4064 120.631 57.0363 120.631 57.8134C120.631 58.5904 121.261 59.2203 122.038 59.2203Z" fill="black"/>
<path d="M109.768 59.2203C110.545 59.2203 111.175 58.5904 111.175 57.8134C111.175 57.0363 110.545 56.4064 109.768 56.4064C108.991 56.4064 108.361 57.0363 108.361 57.8134C108.361 58.5904 108.991 59.2203 109.768 59.2203Z" fill="black"/>
<path d="M149.051 101.643C149.051 101.643 158.514 105.275 150.014 119.963C147.339 124.569 145.889 127.297 145.148 128.859" stroke="black" stroke-linejoin="round"/>
<path d="M128.971 161.198C128.971 161.198 125.272 159.542 125.384 158.523C125.497 157.504 132.938 133.165 138.106 130.015C143.273 126.864 146.585 129.581 146.585 129.581C146.585 129.581 151.603 132.299 150.092 139.395C148.58 146.491 139.325 163.442 139.325 163.442L135.696 162.201" stroke="black" stroke-linejoin="round"/>
<path d="M88.9658 99.8293C88.9658 99.8293 83.5895 117.483 84.6861 143.774" stroke="black" stroke-linejoin="round"/>
<path d="M84.5573 158.546C88.9935 158.525 92.5727 155.045 92.5518 150.775C92.5309 146.504 88.9178 143.059 84.4816 143.081C80.0455 143.103 76.4663 146.582 76.4872 150.853C76.508 155.124 80.1211 158.568 84.5573 158.546Z" stroke="black" stroke-linejoin="round"/>
<path d="M167.188 240.629V219.222V218.674" stroke="black" stroke-linejoin="round"/>
<path d="M66.2546 240.551V208.429V208.419" stroke="black" stroke-linejoin="round"/>
<path d="M27.8787 240.484C27.8787 240.484 43.751 240.514 66.0723 240.543C95.7627 240.581 136.829 240.629 167.18 240.629C190.579 240.629 207.599 240.581 208.105 240.484" stroke="black" stroke-linejoin="round"/>
<path d="M130.144 163.442C131.224 163.442 132.1 162.566 132.1 161.486C132.1 160.407 131.224 159.531 130.144 159.531C129.065 159.531 128.189 160.407 128.189 161.486C128.189 162.566 129.065 163.442 130.144 163.442Z" fill="white"/>
<path d="M134.722 163.822C135.802 163.822 136.677 162.946 136.677 161.866C136.677 160.786 135.802 159.911 134.722 159.911C133.642 159.911 132.767 160.786 132.767 161.866C132.767 162.946 133.642 163.822 134.722 163.822Z" fill="white"/>
<path d="M196.986 73.5199C214.805 73.5199 229.25 59.0751 229.25 41.2563C229.25 23.4378 214.805 8.99274 196.986 8.99274C179.167 8.99274 164.722 23.4378 164.722 41.2563C164.722 59.0751 179.167 73.5199 196.986 73.5199Z" fill="#04D99D"/>
<path d="M196.868 0C189.626 0.000267481 182.512 1.90669 176.241 5.52768C169.969 9.14866 164.761 14.3565 161.14 20.6281C157.518 26.899 155.611 34.0132 155.611 41.2549C155.611 48.4967 157.518 55.6109 161.14 61.8818C164.761 68.1534 169.969 73.3612 176.241 76.9821C182.512 80.6033 189.626 82.5096 196.868 82.5099C204.109 82.5096 211.224 80.6033 217.495 76.9821C223.767 73.3612 228.974 68.1534 232.595 61.8818C236.216 55.6104 238.122 48.4965 238.122 41.2549C238.122 34.0134 236.216 26.8995 232.595 20.6281C228.974 14.3565 223.767 9.14866 217.495 5.52768C211.224 1.90669 204.109 0.000267481 196.868 0Z" fill="#04D99D"/>
<path d="M206.442 30.8004L205.34 30.0247L216.523 13.9785L217.625 14.7542L206.442 30.8004Z" fill="white"/>
<path d="M186.406 55.3186L183.161 59.9588L186.091 62.0085L189.337 57.3683L186.406 55.3186Z" fill="white"/>
<path d="M208.335 34.9999L193.062 56.8344C192.259 57.9979 190.898 58.4607 190.042 57.8642L185.704 54.8336C184.85 54.2372 184.823 52.8115 185.637 51.6453L200.91 29.8108C201.712 28.6472 203.074 28.1818 203.93 28.781L208.268 31.8142C209.121 32.408 209.148 33.8337 208.335 34.9999Z" fill="white"/>
<path d="M189.646 67.0575C189.349 67.4959 188.924 67.8316 188.429 68.0178C188.227 68.1026 188.008 68.1365 187.79 68.117C187.572 68.0975 187.363 68.0247 187.18 67.9054L177.283 60.975C176.587 60.4882 176.571 59.3113 177.232 58.3671C177.529 57.9257 177.956 57.5884 178.454 57.4015C178.656 57.3209 178.874 57.2899 179.091 57.3108C179.307 57.3316 179.515 57.4041 179.698 57.5218L189.595 64.4522C190.277 64.9364 190.298 66.108 189.646 67.0575Z" fill="white"/>
<path d="M210.237 114.354C216.623 114.354 221.8 109.176 221.8 102.79C221.8 96.4039 216.623 91.2271 210.237 91.2271C203.851 91.2271 198.674 96.4039 198.674 102.79C198.674 109.176 203.851 114.354 210.237 114.354Z" fill="#0F8C8C"/>
<path d="M206.516 103.451C208.571 103.451 210.237 101.785 210.237 99.7303C210.237 97.6755 208.571 96.0097 206.516 96.0097C204.461 96.0097 202.795 97.6755 202.795 99.7303C202.795 101.785 204.461 103.451 206.516 103.451Z" fill="white"/>
<path d="M24.8213 219.407C31.2074 219.407 36.3845 214.23 36.3845 207.844C36.3845 201.457 31.2074 196.28 24.8213 196.28C18.4349 196.28 13.2581 201.457 13.2581 207.844C13.2581 214.23 18.4349 219.407 24.8213 219.407Z" fill="#0F8C8C"/>
<path d="M174.445 98.4036C177.637 98.4036 180.225 95.8157 180.225 92.6233C180.225 89.431 177.637 86.8431 174.445 86.8431C171.253 86.8431 168.665 89.431 168.665 92.6233C168.665 95.8157 171.253 98.4036 174.445 98.4036Z" fill="#0F8C8C"/>
<path d="M21.906 208.28C23.961 208.28 25.6266 206.614 25.6266 204.559C25.6266 202.504 23.961 200.838 21.906 200.838C19.8512 200.838 18.1853 202.504 18.1853 204.559C18.1853 206.614 19.8512 208.28 21.906 208.28Z" fill="white"/>
<path d="M216.132 216.122C219.325 216.122 221.913 213.534 221.913 210.342C221.913 207.149 219.325 204.562 216.132 204.562C212.94 204.562 210.352 207.149 210.352 210.342C210.352 213.534 212.94 216.122 216.132 216.122Z" fill="#0F8C8C"/>
<path d="M172.385 93.2894C173.523 93.2894 174.445 92.3674 174.445 91.2298C174.445 90.0924 173.523 89.1702 172.385 89.1702C171.248 89.1702 170.326 90.0924 170.326 91.2298C170.326 92.3674 171.248 93.2894 172.385 93.2894Z" fill="white"/>
<path d="M213.728 210.583C214.521 210.583 215.164 209.94 215.164 209.146C215.164 208.353 214.521 207.71 213.728 207.71C212.934 207.71 212.291 208.353 212.291 209.146C212.291 209.94 212.934 210.583 213.728 210.583Z" fill="white"/>
<path d="M79.8779 25.7504C83.0703 25.7504 85.6582 23.1625 85.6582 19.9701C85.6582 16.7778 83.0703 14.1899 79.8779 14.1899C76.6855 14.1899 74.0977 16.7778 74.0977 19.9701C74.0977 23.1625 76.6855 25.7504 79.8779 25.7504Z" fill="#0F8C8C"/>
<path d="M79 21.5162C80.1374 21.5162 81.0596 20.5942 81.0596 19.4566C81.0596 18.319 80.1374 17.397 79 17.397C77.8624 17.397 76.9404 18.319 76.9404 19.4566C76.9404 20.5942 77.8624 21.5162 79 21.5162Z" fill="white"/>
<path d="M198.676 180.94C210.5 180.94 220.085 171.355 220.085 159.531C220.085 147.707 210.5 138.122 198.676 138.122C186.852 138.122 177.267 147.707 177.267 159.531C177.267 171.355 186.852 180.94 198.676 180.94Z" fill="white"/>
<path d="M198.677 176.019C207.783 176.019 215.164 168.637 215.164 159.531C215.164 150.425 207.783 143.044 198.677 143.044C189.571 143.044 182.189 150.425 182.189 159.531C182.189 168.637 189.571 176.019 198.677 176.019Z" fill="#04D99D"/>
<path d="M198.473 156.193C198.278 155.235 200.239 153.652 200.894 153.307C203.285 152.055 206.958 152.999 208.269 155.391C211.27 160.874 202.831 168.692 198.476 170.621C197.973 170.22 186.052 161.302 188.847 155.594C191.642 149.886 197.783 152.788 198.473 156.193Z" fill="white"/>
</svg>
