<svg width="254" height="252" viewBox="0 0 254 252" fill="none" xmlns="http://www.w3.org/2000/svg">
<path d="M11.6397 141.394C11.4437 138.902 11.2925 136.407 11.1721 133.918" stroke="black" stroke-miterlimit="10"/>
<path d="M153.362 231.032H82.2354" stroke="#CCDDE2" stroke-miterlimit="10"/>
<path d="M174.127 52.8507C174.127 52.8507 195.089 42.9525 212.872 62.2645C218.682 68.5758 222.647 76.9507 222.927 85.5917C223.054 89.808 222.374 94.0095 220.925 97.9707C219.449 102.014 216.8 104.691 214.765 108.292C211.643 113.844 218.169 114.827 221.672 117.518C224 119.321 226.209 121.274 228.283 123.364C232.959 128.034 237.073 133.233 240.542 138.857C247.411 150.059 251.547 162.721 252.616 175.818C253.671 188.732 252.862 202.754 246.24 214.226C243.053 219.751 238.254 225.169 232.352 227.745C224.512 231.164 215.705 231.035 207.328 231.035H189.5" stroke="#CCDDE2" stroke-miterlimit="10"/>
<path d="M86.7519 181.891C86.0491 186.892 85.0018 192.629 83.8454 198.372L82.4818 198.761C78.1176 199.987 73.483 199.851 69.1983 198.372L70.9848 192.302L60.1094 160.661C60.1094 160.661 68.4227 157.973 75.2493 155.977L76.0333 155.943C79.7629 156.73 87.4491 159.684 87.6899 170.747C87.7067 171.279 87.6899 171.839 87.6899 172.449C88.7735 176.019 88.3423 179.167 86.7519 181.891Z" fill="#04D99D"/>
<path d="M61.154 61.4497C61.0468 61.1767 60.8368 60.9569 60.5693 60.837C60.3019 60.7169 59.9981 60.7068 59.7232 60.8084C59.5689 60.8549 59.4267 60.9342 59.306 61.0409C58.8748 61.3909 58.7768 62.0041 58.7628 62.5865C58.7236 63.9165 58.648 65.2493 58.55 66.5737C58.55 66.6633 58.536 66.7642 58.536 66.8538C58.4744 67.9206 58.5192 69.2142 58.0655 70.1438C58.0364 70.2147 57.9866 70.2751 57.9227 70.3174C57.7715 70.3874 57.6119 70.2362 57.5139 70.099C57.2339 69.6902 56.9539 69.2898 56.6739 68.8726C56.4527 68.5394 56.2035 68.1782 55.8171 68.0718C55.2431 67.9122 54.6971 68.419 54.3807 68.9342C53.3587 70.6142 53.2607 73.3667 54.8427 74.7751C56.4247 76.1835 52.8827 78.9528 50.3458 80.1176C49.921 80.3564 49.4758 80.5569 49.0158 80.7168C48.9934 80.7168 49.9314 80.9268 49.909 80.9352C47.935 81.6223 45.8786 82.0451 43.7937 82.1924C41.3184 82.3576 38.9048 82.0468 37.1492 80.9716C37.2248 80.6916 37.824 78.7316 37.8604 78.4516C37.9892 77.4743 38.0816 76.5055 38.1404 75.5227C38.2468 73.6775 38.2384 71.8294 38.1684 69.9898C37.9136 63.3705 39.0924 57.8096 41.8253 56.9612C42.0409 56.8965 42.2478 56.8052 42.4413 56.6896C43.6733 56.0092 44.3313 54.5727 43.7657 53.2175C43.7265 53.1251 43.6817 53.0355 43.6425 52.9375C43.5982 52.8409 43.5476 52.7474 43.4913 52.6575C48.8282 50.9999 52.4514 52.1507 56.1139 54.1555C56.8108 54.7125 57.4658 55.3198 58.0739 55.9728C59.5073 57.529 60.5615 59.3958 61.154 61.4273V61.4497Z" fill="#04D99D"/>
<path d="M189.443 125.092H171.243V81.5904C171.243 81.5904 167.883 119.388 158.676 140.803H102.308C108.953 136.581 114.281 130.202 117.829 123.336C119.229 120.62 121.469 116.588 125.193 117.647C126.078 117.896 127.38 118.055 128.038 117.246C128.265 116.936 128.394 116.564 128.408 116.179C128.727 112.215 124.616 108.877 121.228 107.824C117.84 106.771 113.881 107.264 111.185 109.725C109.241 111.503 108.023 113.864 106.601 116.051C105.747 117.346 104.735 118.531 103.588 119.576C105.05 110.7 106.352 102.216 106.539 99.0935C110.104 96.2795 112.722 91.6902 113.651 87.6301C114.673 83.1948 115.575 78.8576 117.163 74.7051L130.158 74.7499C130.647 74.7499 131.116 74.5556 131.462 74.2095C131.808 73.8634 132.003 73.3941 132.003 72.9047V51.3219C132.003 50.8369 131.812 50.3715 131.471 50.0271C131.129 49.683 130.665 49.4881 130.18 49.485L121.332 49.4094C124.547 48.7374 127.808 48.302 131.087 48.1074C131.154 48.1074 131.216 48.1074 131.275 48.1074C133.434 47.9646 137.217 47.903 139.395 47.8806C136.799 49.2806 135.195 52.2543 135.475 54.8807C135.524 55.4402 135.667 55.9873 135.898 56.4992C138.115 61.3712 143.956 62.8105 148.778 61.3936C154.143 59.8284 158.085 54.8947 157.85 49.219C161.21 49.7118 164.537 50.3371 167.83 51.0951C172.833 52.2459 177.714 53.7971 181.67 57.1796C185.12 60.1168 188.043 63.8997 189.396 68.1754C195.203 86.4569 193.416 106.858 189.443 125.092Z" fill="#828282"/>
<path d="M106.685 99.0935C106.277 105.774 105.224 112.45 104.081 119.108" stroke="black" stroke-miterlimit="10"/>
<path d="M117.309 74.7051C115.718 78.8576 114.82 83.1948 113.798 87.6301C112.86 91.6762 110.247 96.2795 106.685 99.0935C103.695 101.454 100.032 102.566 96.1124 101.076C90.8539 99.0711 89.0087 93.275 88.3647 88.1649C87.5277 81.8018 87.4768 75.36 88.2135 68.9846C88.9555 70.6338 91.9879 75.6515 101.393 74.3327C101.646 74.5214 101.949 74.6298 102.264 74.6435L117.309 74.7051Z" fill="#828282"/>
<path d="M112.028 60.3492C114.218 59.7892 115.551 61.8949 115.226 63.4965C114.697 66.1089 110.939 67.1366 108.702 67.1842C106.91 67.2206 102.542 66.7473 100.761 66.5401" stroke="black" stroke-miterlimit="10"/>
<path d="M100.024 61.6429C102.733 62.4257 105.601 62.4731 108.334 61.7801C110.633 61.1892 113.349 60.1 114.553 57.9132C115.256 56.642 114.696 54.6147 113.229 54.1667C111.535 53.6543 109.967 55.3399 108.432 55.7655C107.442 56.0352 106.432 56.2225 105.411 56.3256C105.131 56.3564 104.868 56.3788 104.596 56.4012C103.167 56.5157 101.731 56.5053 100.304 56.3704C100.152 56.3704 100.004 56.3225 99.8808 56.2337C99.7576 56.1447 99.6657 56.0192 99.6178 55.875C99.5702 55.7311 99.5691 55.5754 99.6147 55.4307C99.6604 55.2859 99.7505 55.1591 99.8723 55.0683L100.13 54.8807" stroke="black" stroke-miterlimit="10"/>
<path d="M117.309 74.7051C115.718 78.8576 114.819 83.1948 113.797 87.6301C112.073 95.0755 104.717 104.352 96.1123 101.07C90.8538 99.0655 89.0085 93.2694 88.3645 88.1593C87.3565 80.2464 87.4405 72.1178 88.9245 64.2721C90.1566 57.8096 92.3434 51.0223 98.6323 47.8442L101.584 46.3686C102.287 46.013 103.102 45.9469 103.854 46.1843C104.606 46.4221 105.235 46.9445 105.607 47.6398C105.834 48.0721 105.954 48.5521 105.957 49.0398C105.96 49.1112 105.954 49.1826 105.94 49.2526" stroke="black" stroke-miterlimit="10"/>
<path d="M177.252 135.444C178.773 135.397 180.294 135.435 181.811 135.559C183.048 135.659 184.331 135.718 185.51 136.18C186.481 136.567 187.495 137.488 187.444 138.613C187.352 140.82 184.462 140.803 182.878 140.803" stroke="black" stroke-miterlimit="10"/>
<path opacity="0.54" d="M150.058 133.341L163.235 99.5808C163.398 98.9264 163.409 98.2435 163.269 97.584C163.128 96.9244 162.839 96.3058 162.423 95.7749C162.007 95.244 161.476 94.8151 160.869 94.5205C160.263 94.2262 159.597 94.0739 158.923 94.0759H106.595C105.422 94.0784 104.285 94.4754 103.364 95.2026C102.444 95.9298 101.795 96.9451 101.521 98.0855L87.0788 131.837C86.9223 132.489 86.9153 133.167 87.0587 133.822C87.2023 134.477 87.4924 135.09 87.9071 135.617C88.3218 136.143 88.8507 136.569 89.4535 136.861C90.0564 137.154 90.718 137.306 91.3881 137.306H144.981C146.148 137.305 147.281 136.915 148.201 136.196C149.121 135.478 149.774 134.473 150.058 133.341Z" fill="white"/>
<path d="M150.058 133.341L163.235 99.5808C163.398 98.9264 163.409 98.2435 163.269 97.584C163.128 96.9244 162.839 96.3058 162.423 95.7749C162.007 95.244 161.476 94.8151 160.869 94.5205C160.263 94.2262 159.597 94.0739 158.923 94.0759H106.595C105.422 94.0784 104.285 94.4754 103.364 95.2026C102.444 95.9298 101.795 96.9451 101.521 98.0855L87.0788 131.837C86.9223 132.489 86.9153 133.167 87.0587 133.822C87.2023 134.477 87.4924 135.09 87.9071 135.617C88.3218 136.143 88.8507 136.569 89.4535 136.861C90.0564 137.154 90.718 137.306 91.3881 137.306H144.981C146.148 137.305 147.281 136.915 148.201 136.196C149.121 135.478 149.774 134.473 150.058 133.341Z" fill="#04D99D"/>
<path d="M150.058 133.341L163.235 99.5808C163.398 98.9264 163.409 98.2435 163.269 97.584C163.128 96.9244 162.839 96.3058 162.423 95.7749C162.007 95.244 161.476 94.8151 160.869 94.5205C160.263 94.2262 159.597 94.0739 158.923 94.0759H106.595C105.422 94.0784 104.285 94.4754 103.364 95.2026C102.444 95.9298 101.795 96.9451 101.521 98.0855L87.0788 131.837C86.9223 132.489 86.9153 133.167 87.0587 133.822C87.2023 134.477 87.4924 135.09 87.9071 135.617C88.3218 136.143 88.8507 136.569 89.4535 136.861C90.0564 137.154 90.718 137.306 91.3881 137.306H144.981C146.148 137.305 147.281 136.915 148.201 136.196C149.121 135.478 149.774 134.473 150.058 133.341Z" stroke="black" stroke-linecap="square" stroke-linejoin="round"/>
<path d="M148.129 131.975L160.287 100.83C160.437 100.227 160.449 99.5975 160.32 98.9897C160.191 98.3818 159.925 97.8114 159.542 97.3217C159.16 96.8322 158.671 96.436 158.112 96.1638C157.554 95.8914 156.94 95.75 156.319 95.7503H108.032C106.948 95.75 105.896 96.1146 105.044 96.7857C104.193 97.4569 103.592 98.3949 103.339 99.4491L90.0418 130.589C89.8984 131.189 89.8931 131.815 90.0261 132.418C90.1591 133.021 90.4268 133.587 90.8093 134.071C91.1918 134.556 91.6793 134.948 92.2351 135.218C92.7906 135.488 93.4002 135.628 94.0179 135.629H143.447C144.523 135.629 145.569 135.27 146.417 134.608C147.266 133.946 147.868 133.019 148.129 131.975Z" fill="#04D99D"/>
<path d="M111.515 101.49C112.156 100.53 113.195 100.09 113.856 100.536C114.517 100.981 114.517 102.101 113.878 103.056C113.777 103.203 113.665 103.341 113.542 103.47L118.285 113.486C119.041 112.982 119.873 112.856 120.472 113.253C120.664 113.394 120.823 113.574 120.938 113.782C121.054 113.99 121.122 114.221 121.139 114.457L124.381 113.365L127.215 112.411L128.139 112.108C128.256 111.76 128.418 111.429 128.62 111.123C129.519 109.77 130.989 109.163 131.905 109.779C132.82 110.395 132.832 111.949 131.958 113.29L137.362 120.668C138.541 119.702 139.927 119.402 140.887 120.041C142.195 120.912 142.215 123.182 140.932 125.109C140.879 125.187 140.82 125.249 140.767 125.322L144.362 130.238L144.396 130.286C144.58 130.564 144.646 130.903 144.58 131.229C144.513 131.555 144.321 131.841 144.043 132.025C143.766 132.209 143.427 132.275 143.101 132.209C142.775 132.143 142.488 131.95 142.304 131.672L139.112 126.853C138.101 127.438 137.026 127.55 136.239 127.027C134.99 126.187 134.929 124.092 136.043 122.225L130.872 114.418C130.107 114.936 129.264 115.068 128.66 114.667C128.324 114.429 128.095 114.068 128.021 113.662L127.635 113.769L124.753 114.555L121.063 115.552C120.948 115.994 120.759 116.414 120.503 116.793C119.604 118.142 118.134 118.753 117.219 118.137C116.303 117.521 116.289 115.939 117.188 114.586C117.32 114.388 117.467 114.2 117.63 114.026L113.114 103.823C112.57 104.195 111.968 104.29 111.537 104.002C110.888 103.571 110.876 102.44 111.515 101.49Z" fill="#0F8C8C"/>
<path d="M145.874 102.028H152.874C153.194 102.027 153.507 101.934 153.775 101.759C154.043 101.584 154.254 101.335 154.383 101.042C154.422 100.954 154.443 100.859 154.445 100.762C154.444 100.571 154.368 100.388 154.232 100.253C154.097 100.119 153.914 100.043 153.723 100.043H146.283C146.633 100.628 146.456 101.448 145.874 102.028Z" fill="#0F8C8C"/>
<path d="M141.349 101.311C141.35 101.501 141.426 101.684 141.561 101.818C141.696 101.952 141.878 102.028 142.069 102.028H145.874C146.456 101.448 146.633 100.628 146.283 100.037H142.923C142.603 100.037 142.29 100.13 142.022 100.304C141.754 100.479 141.543 100.727 141.414 101.02C141.372 101.112 141.351 101.211 141.349 101.311Z" fill="#04D99D"/>
<path d="M143.099 102.028C143.12 102.066 143.143 102.103 143.169 102.137C143.668 102.82 144.751 102.885 145.591 102.272C145.691 102.198 145.785 102.116 145.871 102.028C146.454 101.448 146.63 100.628 146.28 100.037C146.262 99.9985 146.239 99.9618 146.213 99.928C145.717 99.2419 144.634 99.1831 143.794 99.7907C143.694 99.8658 143.601 99.9481 143.514 100.037C142.931 100.62 142.755 101.434 143.099 102.028Z" fill="white"/>
<path d="M139.603 105.704C139.604 105.895 139.681 106.077 139.816 106.212C139.952 106.346 140.135 106.421 140.325 106.421H147.67C147.314 105.828 147.491 105.021 148.073 104.43H141.165C140.845 104.431 140.531 104.524 140.263 104.699C139.995 104.874 139.783 105.123 139.653 105.416C139.618 105.508 139.601 105.606 139.603 105.704Z" fill="#04D99D"/>
<path d="M147.659 106.421H151.114C151.433 106.421 151.746 106.329 152.014 106.155C152.282 105.981 152.493 105.733 152.623 105.441C152.663 105.353 152.685 105.258 152.688 105.161C152.688 105.067 152.67 104.973 152.634 104.885C152.598 104.798 152.545 104.719 152.478 104.652C152.411 104.585 152.331 104.532 152.244 104.496C152.156 104.46 152.063 104.441 151.968 104.442H148.062C147.48 105.013 147.303 105.828 147.659 106.421Z" fill="#0F8C8C"/>
<path d="M147.658 106.421C147.674 106.46 147.695 106.497 147.719 106.53C148.215 107.216 149.299 107.278 150.139 106.668C150.238 106.593 150.332 106.51 150.419 106.421C150.996 105.839 151.172 105.021 150.828 104.43C150.807 104.393 150.785 104.356 150.76 104.321C150.259 103.638 149.176 103.576 148.336 104.19C148.236 104.262 148.142 104.343 148.055 104.43C147.479 105.013 147.302 105.828 147.658 106.421Z" fill="white"/>
<path d="M145.203 110.784H149.599C149.919 110.783 150.232 110.69 150.5 110.516C150.768 110.342 150.981 110.093 151.111 109.801C151.149 109.712 151.17 109.617 151.172 109.521C151.172 109.329 151.096 109.145 150.961 109.009C150.825 108.873 150.642 108.796 150.45 108.796H145.62C145.967 109.387 145.788 110.201 145.203 110.784Z" fill="#04D99D"/>
<path d="M138.084 110.07C138.085 110.164 138.104 110.257 138.14 110.344C138.176 110.431 138.229 110.51 138.296 110.576C138.363 110.642 138.442 110.695 138.529 110.73C138.617 110.766 138.71 110.784 138.804 110.784H145.202C145.779 110.201 145.958 109.384 145.611 108.79H139.658C139.337 108.79 139.024 108.883 138.756 109.059C138.487 109.234 138.276 109.485 138.149 109.779C138.107 109.87 138.085 109.969 138.084 110.07Z" fill="#0F8C8C"/>
<path d="M142.436 110.784C142.456 110.822 142.48 110.859 142.506 110.893C143.002 111.579 144.082 111.638 144.925 111.027C145.025 110.953 145.118 110.872 145.205 110.784C145.782 110.201 145.961 109.384 145.614 108.79C145.596 108.751 145.573 108.715 145.547 108.681C145.046 108 143.965 107.942 143.122 108.549C143.023 108.623 142.929 108.703 142.842 108.79C142.265 109.373 142.086 110.193 142.436 110.784Z" fill="white"/>
<path d="M116.785 131.359H121.184C121.504 131.358 121.817 131.265 122.084 131.091C122.352 130.916 122.564 130.668 122.694 130.376C122.732 130.287 122.753 130.192 122.755 130.096C122.755 129.904 122.679 129.72 122.543 129.585C122.408 129.449 122.224 129.373 122.033 129.373H117.203C117.541 129.961 117.362 130.776 116.785 131.359Z" fill="#04D99D"/>
<path d="M99.3298 130.644C99.3301 130.739 99.3492 130.832 99.3856 130.919C99.4217 131.005 99.4749 131.084 99.5418 131.15C99.6084 131.217 99.6877 131.269 99.7748 131.305C99.8621 131.341 99.9554 131.359 100.049 131.359H116.785C117.362 130.776 117.541 129.958 117.194 129.368H100.903C100.583 129.367 100.27 129.46 100.002 129.635C99.7339 129.811 99.5228 130.06 99.3942 130.353C99.3542 130.445 99.3324 130.544 99.3298 130.644Z" fill="#0F8C8C"/>
<path d="M114.01 131.359C114.03 131.397 114.054 131.433 114.08 131.468C114.576 132.154 115.657 132.213 116.5 131.605C116.598 131.529 116.692 131.447 116.78 131.359C117.356 130.776 117.536 129.958 117.188 129.368C117.17 129.329 117.147 129.292 117.121 129.258C116.62 128.575 115.539 128.516 114.696 129.124C114.597 129.198 114.503 129.279 114.416 129.368C113.842 129.947 113.66 130.768 114.01 131.359Z" fill="white"/>
<path d="M6.0906 142.142C6.0906 142.142 -3.14956 183.882 20.6201 192.601C44.3898 201.321 108.598 193.13 81.9132 163.013C55.2288 132.896 6.0906 142.142 6.0906 142.142Z" fill="#828282"/>
<path d="M121.424 49.4094C124.655 48.7355 127.93 48.2987 131.224 48.1018C131.294 48.1018 131.353 48.1018 131.415 48.1018C133.579 47.959 137.371 47.8974 139.535 47.875" stroke="black" stroke-miterlimit="10"/>
<path d="M105.412 56.3172C105.389 56.3313 105.375 56.3484 105.353 56.3626" stroke="black" stroke-miterlimit="10"/>
<path d="M142.249 38.7693C140.597 39.6373 138.699 39.0493 137.971 37.5708" stroke="black" stroke-miterlimit="10"/>
<path d="M132.659 17.6709C132.584 18.9555 132.914 20.2312 133.601 21.3188C134.289 22.4066 135.3 23.2516 136.492 23.7358C136.744 23.2729 137.106 22.879 137.545 22.5878C139.401 21.3865 139.071 24.5954 144.111 23.7498C151.097 22.571 152.878 25.0042 152.878 25.0042C153.032 25.217 152.598 26.6058 152.536 26.8606C152.256 28.3531 151.976 29.8371 151.722 31.3407C151.557 32.2516 151.391 33.1568 151.223 34.0568C151.35 33.9336 151.485 33.8185 151.626 33.7124C152.774 31.9203 154.457 29.9099 156.291 31.5507C156.659 31.8923 156.941 32.3165 157.114 32.7883C157.954 35.0704 156.347 36.5376 154.468 37.4168C153.973 37.7167 153.446 37.9617 152.898 38.1476C152.99 38.7244 153.374 41.0233 153.374 41.0289C153.413 41.2641 158.078 38.3884 158.467 38.0384C159.17 37.1085 159.712 36.0675 160.071 34.9584C161.522 30.3831 161.275 24.4694 158.355 20.7061C157.63 19.7737 158.114 19.2361 158.324 18.3289C158.334 18.2799 158.329 18.2292 158.31 18.1833C158.291 18.1371 158.259 18.0979 158.217 18.0704C158.176 18.043 158.127 18.0287 158.077 18.0293C158.027 18.0301 157.979 18.0455 157.938 18.0741C156.364 19.0625 153.516 18.0517 153.516 18.0517C144.276 12.5019 139.541 15.9348 137.276 16.1084C136.357 16.1714 135.445 15.9119 134.697 15.3748C134.566 15.6347 134.366 15.8536 134.119 16.0085C133.873 16.1633 133.588 16.2482 133.297 16.254L133.208 16.7356C133.139 17.1016 132.945 17.4323 132.659 17.6709Z" fill="#04D99D"/>
<path d="M136.497 23.747C135.305 23.2631 134.294 22.4181 133.607 21.3303C132.919 20.2424 132.589 18.9667 132.664 17.6821C132.691 17.1887 132.762 16.6987 132.877 16.2176L132.958 16.2344C133.068 16.2594 133.181 16.2678 133.294 16.2596C133.585 16.254 133.869 16.1692 134.116 16.0144C134.363 15.8595 134.563 15.6403 134.694 15.3804C134.771 15.2359 134.825 15.08 134.854 14.9184L135.285 12.5748C135.285 12.5748 136.685 14.4704 138.925 14.294C141.165 14.1176 145.9 10.6848 155.165 16.2372C155.165 16.2372 157.389 17.0577 158.962 16.0692C159.003 16.041 159.052 16.0253 159.101 16.0247C159.151 16.0242 159.2 16.0384 159.242 16.0659C159.283 16.0933 159.316 16.1325 159.335 16.1784C159.354 16.2246 159.358 16.2753 159.349 16.324C159.139 17.2285 159.279 17.9593 160.004 18.8917C162.924 22.655 163.171 28.5687 161.72 33.1439C161.085 35.0401 159.957 36.733 158.453 38.0496C158.063 38.3996 153.399 41.2753 153.359 41.0401C153.359 41.0401 152.976 38.7356 152.883 38.1588L152.861 38.0272L152.993 37.988C153.492 37.8338 153.98 37.6467 154.454 37.428C156.333 36.5488 157.949 35.0816 157.1 32.7995C156.927 32.328 156.645 31.9038 156.277 31.5619C154.443 29.9211 152.76 31.9315 151.612 33.7236C151.39 34.0638 151.208 34.4283 151.069 34.81C151.114 34.5636 151.159 34.3228 151.206 34.0764C151.374 33.1747 151.54 32.2695 151.705 31.3603C151.985 29.8651 152.245 28.3811 152.519 26.8802C152.57 26.6254 153.015 25.2366 152.861 25.0238C152.861 25.0238 151.08 22.5906 144.094 23.7694C139.054 24.6094 139.384 21.4061 137.528 22.6074C137.089 22.8986 136.727 23.2928 136.475 23.7554C136.397 23.9063 136.328 24.0614 136.268 24.2202C136.258 24.2401 136.249 24.2608 136.243 24.2818C136.117 24.629 136.002 24.979 135.89 25.3206C134.843 28.6499 134.151 32.2451 134.521 35.7424C134.971 39.9817 138.06 44.9658 142.974 44.5429C144.52 44.3618 146.028 43.9384 147.443 43.2885" stroke="black" stroke-miterlimit="10"/>
<path d="M137.033 32.7824C137.514 32.7687 137.89 32.2866 137.874 31.7053C137.858 31.124 137.455 30.6639 136.974 30.6777C136.493 30.6911 136.117 31.1733 136.133 31.7545C136.15 32.3358 136.553 32.7959 137.033 32.7824Z" fill="black"/>
<path d="M143.613 34.5498C144.094 34.5361 144.47 34.054 144.454 33.4729C144.438 32.8917 144.035 32.4313 143.554 32.445C143.073 32.4588 142.697 32.9409 142.713 33.5219C142.73 34.1032 143.133 34.5636 143.613 34.5498Z" fill="black"/>
<path d="M140.772 34.9388C140.772 34.9388 138.227 35.4988 138.485 34.194C138.563 33.7851 139.202 29.7699 139.202 29.7699C139.202 29.7699 138.014 27.3786 134.909 27.9358" stroke="black" stroke-miterlimit="10"/>
<path d="M141.916 29.4115C141.916 29.4115 145.951 28.7254 147.497 31.9483" stroke="black" stroke-miterlimit="10"/>
<path d="M139.58 47.8414C136.401 49.5214 134.705 53.5647 136.035 56.4908C138.252 61.3656 144.09 62.7993 148.915 61.3908C154.28 59.8228 158.222 54.8779 157.987 49.2078" stroke="black" stroke-miterlimit="10"/>
<path d="M158.822 140.8C168.037 119.386 171.383 81.5876 171.383 81.5876V134.324C171.382 135.174 171.549 136.017 171.875 136.803C172.2 137.589 172.677 138.303 173.279 138.904C173.88 139.506 174.594 139.983 175.38 140.308C176.166 140.633 177.008 140.801 177.859 140.8H198.299C199.066 140.812 199.81 140.541 200.388 140.038C200.966 139.535 201.338 138.836 201.433 138.076C201.474 137.657 201.427 137.234 201.294 136.834C201.162 136.435 200.947 136.067 200.664 135.756C200.381 135.444 200.036 135.195 199.651 135.025C199.266 134.856 198.849 134.768 198.428 134.769H190.056C189.722 134.768 189.393 134.691 189.094 134.543C188.794 134.395 188.532 134.182 188.328 133.918C188.124 133.653 187.983 133.346 187.916 133.019C187.848 132.692 187.856 132.354 187.939 132.031C192.979 112.15 196.096 88.8146 189.535 68.1642C188.18 63.9025 185.26 60.1056 181.81 57.1712C177.851 53.7887 172.97 52.2375 167.969 51.0895C164.671 50.3335 161.344 49.7079 157.987 49.2134C157.977 49.2168 157.966 49.2168 157.956 49.2134C157.934 49.2134 157.912 49.2134 157.898 49.2134H157.875H157.844H157.8" stroke="black" stroke-miterlimit="10"/>
<path d="M155.876 39.6989L155.507 46.3882C155.472 47.042 155.677 47.686 156.084 48.1987C156.491 48.7114 157.071 49.0575 157.716 49.1714H157.8C157.815 49.1675 157.83 49.1675 157.845 49.1714H157.859H157.898" stroke="black" stroke-miterlimit="10"/>
<path d="M157.957 49.2022H157.898H157.876H157.859H157.845H157.8H157.716C157.071 49.0883 156.491 48.7422 156.084 48.2295C155.677 47.7165 155.472 47.0725 155.507 46.419L155.876 39.7296" stroke="black" stroke-miterlimit="10"/>
<path d="M140.109 44.1258C139.927 44.053 140.109 51.5963 135.609 54.8723" stroke="black" stroke-miterlimit="10"/>
<path d="M79.8663 140.803H65.4517" stroke="black" stroke-miterlimit="10"/>
<path d="M220.689 140.803H102.308" stroke="black" stroke-miterlimit="10"/>
<path d="M38.1703 69.9814C38.3092 72.8055 38.2081 75.6364 37.8679 78.4432C37.4311 81.7416 34.3818 85.9333 33.721 89.1954C32.7774 93.8882 34.2055 98.7379 36.1655 103.095C38.5343 108.362 42.2668 113.659 41.9028 119.691C41.7163 122.317 40.9345 124.867 39.6171 127.148C38.2994 129.427 36.4805 131.378 34.2979 132.851C31.308 134.851 27.893 136.126 24.3241 136.575C23.8257 136.634 23.3189 136.681 22.812 136.695C22.532 136.695 22.252 136.665 21.972 136.642C12.4798 135.839 2.744 128.598 2.7664 118.517C2.7664 112.077 7.66088 107.037 8.4869 100.788C8.99371 96.9655 7.87369 92.995 8.90971 89.285C10.5897 83.3601 17.0831 80.1288 19.928 74.6743C22.0224 70.6478 22.364 65.9493 24.0217 61.7269C26.3289 55.8467 30.0138 49.1266 35.0539 48.5666C36.5163 48.7324 37.9301 49.1936 39.2091 49.9218C42.334 51.6019 43.1292 51.7083 43.7648 53.2063C44.4144 54.7715 43.4456 56.4432 41.8272 56.9444C39.0943 57.8096 37.9155 63.3621 38.1703 69.9814Z" fill="#04D99D"/>
<path d="M40.917 50.8319C49.1211 48.4546 54.3348 51.9519 58.0645 55.984C61.7942 60.016 61.6206 64.5941 61.6206 64.5941" stroke="black" stroke-miterlimit="10"/>
<path d="M66.3642 129.692C66.2404 136.102 65.4284 142.48 63.9421 148.716" stroke="black" stroke-miterlimit="10"/>
<path d="M86.7514 181.891C83.7469 187.06 76.6208 190.731 67.9014 193.016C52.4283 197.07 31.9432 196.754 20.6254 192.598C-3.1582 183.882 6.08757 142.142 6.08757 142.142C6.08757 142.142 47.2231 134.399 74.6524 156.142C77.2729 158.213 79.7053 160.512 81.9213 163.01C84.9537 166.44 86.8158 169.579 87.695 172.446C88.773 176.019 88.3418 179.167 86.7514 181.891Z" stroke="black" stroke-miterlimit="10"/>
<path d="M70.9844 192.31C70.9844 192.31 56.5726 232.314 80.7846 242.532C104.997 252.749 -8.12821 254.11 16.8426 242.532C41.8135 230.954 27.4604 194.754 27.4604 194.754" stroke="black" stroke-miterlimit="10"/>
<path d="M100.301 56.362C100.001 55.4463 100.124 52.2627 100.222 50.465C100.241 50.1257 100.391 49.8068 100.641 49.5763C100.891 49.3459 101.221 49.2215 101.561 49.2302L130.326 49.4822C130.81 49.4867 131.274 49.6824 131.616 50.0268C131.957 50.3715 132.148 50.8369 132.148 51.3219V72.9075C132.148 73.1497 132.1 73.3896 132.008 73.6133C131.915 73.8371 131.778 74.0403 131.607 74.2112C131.435 74.3822 131.231 74.5175 131.007 74.6093C130.783 74.7014 130.543 74.7482 130.3 74.7471L102.269 74.6435C101.863 74.6267 101.479 74.4536 101.198 74.1605C100.916 73.867 100.76 73.4761 100.76 73.0699V71.4234C102.753 72.353 106.522 72.6386 106.522 72.6386C107.864 72.6022 109.983 72.4398 111.145 71.7734C112.209 71.163 113.553 70.2866 113.735 68.9594C113.806 68.4461 113.67 67.9259 113.357 67.5123C113.045 67.0987 112.582 66.8257 112.069 66.7529C111.761 66.6913 111.442 66.7137 111.145 66.8173" stroke="black" stroke-miterlimit="10"/>
<path d="M128.374 116.179C128.361 116.564 128.231 116.937 128.002 117.246C127.344 118.055 126.042 117.896 125.157 117.647C121.436 116.588 119.201 120.62 117.795 123.336C114.245 130.202 108.919 136.581 102.275 140.803C101.844 141.083 101.404 141.346 100.959 141.604C94.4654 145.35 86.0513 144.653 79.7708 140.764L87.8013 121.038L88.5965 121.673C93.4462 125.501 99.4159 123.353 103.549 119.576C104.696 118.531 105.708 117.347 106.562 116.051C107.984 113.864 109.202 111.503 111.148 109.725C113.842 107.264 117.784 106.782 121.189 107.824C124.594 108.866 128.682 112.215 128.374 116.179Z" fill="white"/>
<path d="M128.34 114.782C128.34 114.782 127.428 109.949 119.198 113.721" stroke="black" stroke-miterlimit="10"/>
<path d="M123.763 108.981C123.763 108.981 118.633 107.34 115.777 111.26" stroke="black" stroke-miterlimit="10"/>
<path d="M20.214 136.651C21.5837 136.773 22.9622 136.75 24.3272 136.583C27.8953 136.129 31.3089 134.851 34.2982 132.851C36.4809 131.378 38.3 129.427 39.6175 127.147C40.9352 124.867 41.7167 122.317 41.9032 119.691C42.2672 113.657 38.5431 108.359 36.1658 103.092C34.2058 98.7323 32.7778 93.8826 33.7242 89.1953C34.3822 85.9305 37.4259 81.7416 37.8655 78.4403C38.2074 75.6336 38.3104 72.8027 38.1735 69.9786C37.9187 63.3565 39.0947 57.7984 41.8276 56.9528C43.446 56.4516 44.4176 54.7771 43.7652 53.2147C43.1408 51.7139 42.3372 51.6243 39.2095 49.9246C31.0558 45.4894 25.3857 53.7579 22.2552 61.7296C20.5948 65.9549 20.2588 70.6478 18.1615 74.6743C15.3167 80.1316 8.80938 83.3544 7.14615 89.2905C6.10733 92.9978 7.22735 96.9711 6.72334 100.788C5.90013 107.034 1.01404 112.072 1.00004 118.517C0.977638 128.595 10.7246 135.841 20.214 136.651Z" stroke="black" stroke-miterlimit="10"/>
<path d="M86.7515 181.891C86.0487 186.892 85.0015 192.629 83.8478 198.372C80.5774 214.649 76.4165 231.024 76.4165 231.024" stroke="black" stroke-miterlimit="10"/>
<path d="M87.684 172.446C87.698 171.836 87.7064 171.276 87.684 170.744C87.4348 159.264 79.1803 156.52 75.6298 155.862C75.1001 155.758 74.5641 155.69 74.0254 155.657" stroke="black" stroke-miterlimit="10"/>
<path d="M77.6488 226.059C78.1057 225.779 78.6291 225.626 79.165 225.616C79.7006 225.606 80.2293 225.739 80.6966 226.001C81.164 226.263 81.5529 226.645 81.8234 227.108C82.0938 227.57 82.2361 228.097 82.2353 228.632C82.2353 228.671 82.2353 228.719 82.2353 228.775C82.1907 230.158 81.8264 231.511 81.171 232.73C80.5157 233.948 79.5872 234.998 78.458 235.798L74.5659 238.567" stroke="black" stroke-miterlimit="10"/>
<path d="M33.4358 92.897C33.979 92.6758 34.5334 92.4798 35.0934 92.2978C36.2722 90.1194 36.0902 85.3509 35.9782 83.6177L37.1571 80.9604C40.4107 82.9596 44.7172 82.2092 48.7129 80.8176C49.274 80.6216 49.8197 80.3839 50.3453 80.1064C52.8821 78.9416 56.4382 76.1863 54.8422 74.7639C53.2461 73.3415 53.3582 70.603 54.3802 68.923C54.691 68.4078 55.2426 67.901 55.8166 68.0606C56.203 68.167 56.4522 68.5282 56.6734 68.8614C56.9534 69.2786 57.2334 69.679 57.5134 70.0878C57.6114 70.225 57.771 70.3678 57.9222 70.3062C57.9861 70.2642 58.0359 70.2037 58.065 70.1326C58.5578 69.119 58.4654 67.6658 58.5494 66.5541C58.6474 65.2297 58.7231 63.8969 58.7623 62.5669C58.7847 61.8333 58.9359 61.0464 59.7227 60.7888C59.8814 60.7278 60.0522 60.7034 60.2216 60.718C60.3913 60.7326 60.5554 60.7855 60.7013 60.8728C60.8474 60.9605 60.9715 61.08 61.0645 61.2226C61.1574 61.3654 61.2165 61.5272 61.2375 61.6961C61.8101 64.9142 61.8941 68.2 61.4867 71.443C61.1003 74.8395 60.4031 78.4432 58.2246 81.1816C56.9834 82.7614 55.3204 83.9573 53.4282 84.6313C51.5969 85.2669 51.6557 87.4761 51.6557 89.4138V92.631C57.2866 93.7734 62.5759 95.1511 66.9496 99.0711C69.8421 101.715 72.5637 104.541 75.0977 107.53C83.0751 116.891 84.7999 118.646 88.6416 121.673C93.4913 125.501 99.4638 123.353 103.594 119.576C104.739 118.531 105.749 117.346 106.601 116.051C108.024 113.864 109.242 111.503 111.185 109.725C113.881 107.264 117.824 106.782 121.229 107.824C124.633 108.866 128.727 112.215 128.402 116.179C128.389 116.564 128.26 116.936 128.033 117.246C127.375 118.055 126.073 117.896 125.188 117.647C121.464 116.588 119.232 120.62 117.824 123.336C114.276 130.202 108.948 136.581 102.303 140.803C101.872 141.083 101.435 141.346 100.987 141.604C93.5641 145.888 83.6127 144.359 77.2286 138.902L61.8283 125.828" stroke="black" stroke-miterlimit="10"/>
<path d="M35.094 92.2978C35.094 92.2978 42.4497 90.0242 51.6563 92.6394" stroke="black" stroke-miterlimit="10"/>
<path d="M100.761 71.4234C100.761 71.4234 100.817 80.9436 103.088 84.6089" stroke="black" stroke-miterlimit="10"/>
<path d="M108.223 27.849C106.475 30.8311 106.557 32.9479 107.01 36.3836C107.048 36.6762 107.002 36.9733 106.878 37.241C106.754 37.5086 106.556 37.7357 106.309 37.8962C106.061 38.0566 105.773 38.1437 105.478 38.1476C105.183 38.1513 104.893 38.0717 104.641 37.918C94.5613 32.1163 85.1279 36.7056 73.0933 33.8635C68.6748 32.8247 63.1671 30.6771 59.3898 27.219C58.1368 25.3578 57.4679 23.1651 57.469 20.9217C57.469 11.5163 70.3184 3.88892 86.1611 3.88892C96.3169 3.88892 105.238 7.02217 110.34 11.7431C110.34 11.7431 110.34 11.7431 110.354 11.7599C111.633 13.6001 112.332 15.7822 112.358 18.0237C112.358 21.4089 109.85 25.049 108.223 27.849Z" fill="#0F8C8C"/>
<path d="M112.314 18.0293V18.2673C112.255 21.5629 110.606 24.6262 108.648 27.2778C107.338 29.0531 105.784 31.0215 106.154 33.1971C106.316 34.1548 106.851 35.0256 106.994 35.9972C107.136 36.9688 106.616 38.1588 105.644 38.2092C105.028 38.24 104.501 37.8004 104.014 37.4224C101.122 35.1824 97.3642 34.3424 93.7101 34.1968C90.056 34.0512 86.4076 34.53 82.7507 34.6336C77.481 34.7848 72.1273 34.1268 67.258 32.1135C62.8815 30.2879 58.8915 27.3198 56.265 23.369C53.6862 19.4741 55.2122 13.8235 57.9618 10.4383C60.5435 7.26302 64.2788 5.23018 68.112 3.79935C78.419 -0.0507162 90.1848 0.0416846 100.352 4.25576C103.37 5.49338 106.282 7.12861 108.55 9.48626C110.762 11.7851 112.294 14.8484 112.314 18.0293Z" stroke="black" stroke-miterlimit="10"/>
<path d="M70.0157 21.7758C72.2022 21.7758 73.9749 20.0033 73.9749 17.8165C73.9749 15.6299 72.2022 13.8572 70.0157 13.8572C67.8291 13.8572 66.0564 15.6299 66.0564 17.8165C66.0564 20.0033 67.8291 21.7758 70.0157 21.7758Z" fill="white"/>
<path d="M82.8172 21.7758C85.0037 21.7758 86.7765 20.0033 86.7765 17.8165C86.7765 15.6299 85.0037 13.8572 82.8172 13.8572C80.6303 13.8572 78.8579 15.6299 78.8579 17.8165C78.8579 20.0033 80.6303 21.7758 82.8172 21.7758Z" fill="white"/>
<path d="M95.8689 21.7758C98.0555 21.7758 99.8282 20.0033 99.8282 17.8165C99.8282 15.6299 98.0555 13.8572 95.8689 13.8572C93.6824 13.8572 91.9097 15.6299 91.9097 17.8165C91.9097 20.0033 93.6824 21.7758 95.8689 21.7758Z" fill="white"/>
<g opacity="0.54">
<path opacity="0.54" d="M171.948 183.812L170.338 207.052C169.602 208.455 168.682 209.754 167.602 210.914C167.485 210.872 167.367 210.827 167.252 210.774C167.037 210.701 166.824 210.614 166.622 210.53C163.36 209.099 160.882 206.433 160.16 203.412C159.508 200.766 160.096 197.907 158.836 195.421C157.298 192.358 153.118 190.437 152.605 186.982C152.124 183.747 155.036 180.782 154.565 177.613C154.005 174.028 149.623 171.903 148.803 168.403C148.291 166.228 148.75 163.73 148.557 161.49C148.343 158.984 147.923 156.5 147.299 154.064C153.787 153.594 160.39 157.169 162.492 162.291C164.209 166.491 163.176 171.382 165.852 175.202C167.314 177.271 169.747 178.819 171.007 180.984C171.396 181.659 171.679 182.39 171.847 183.151C171.847 183.204 171.847 183.257 171.867 183.299C171.867 183.386 171.889 183.448 171.901 183.512C171.929 183.705 171.948 183.812 171.948 183.812Z" fill="#04D99D"/>
<path opacity="0.54" d="M171.96 183.792C171.96 183.792 171.94 183.697 171.918 183.512C171.937 183.586 171.951 183.661 171.96 183.736C171.964 183.745 171.966 183.754 171.966 183.764C171.966 183.774 171.964 183.783 171.96 183.792Z" fill="#04D99D"/>
</g>
<path d="M193.395 174.723C192.555 177.741 187.954 179.575 187.4 182.669C186.91 185.414 189.939 187.973 189.438 190.759C188.903 193.746 184.549 195.398 182.95 198.039C181.648 200.184 182.256 202.651 181.584 204.933C180.806 207.526 178.224 209.841 174.819 211.068C174.606 211.143 174.405 211.216 174.189 211.28C174.071 211.314 173.943 211.356 173.825 211.387C172.705 210.46 171.403 208.828 170.347 207.066L171.949 183.812C173.198 182.753 174.626 181.785 175.62 180.609C176.698 179.34 177.199 177.954 177.518 176.501H177.552V176.341C178.02 174.048 178.062 171.646 179.14 169.47C181.326 165.043 188.189 161.957 194.943 162.363C194.306 164.455 193.87 166.602 193.641 168.776C193.448 170.699 193.924 172.855 193.395 174.723Z" fill="#04D99D"/>
<path d="M177.563 176.322V176.481H177.529L177.563 176.322Z" fill="#04D99D"/>
<path d="M177.563 176.322L177.529 176.481C177.21 177.935 176.709 179.321 175.631 180.589C174.637 181.765 173.209 182.734 171.96 183.792C171.965 183.778 171.965 183.762 171.96 183.747C171.951 183.672 171.937 183.597 171.918 183.523C171.918 183.459 171.895 183.397 171.884 183.311C171.884 183.269 171.884 183.215 171.865 183.162C171.697 182.401 171.413 181.67 171.025 180.995C169.764 178.831 167.331 177.282 165.87 175.213C165.87 175.213 166.53 164.307 172.111 160.989C177.403 157.853 177.563 174.507 177.563 176.322Z" fill="#04D99D"/>
<path d="M177.563 176.322V176.481H177.529L177.563 176.322Z" fill="#04D99D"/>
<path d="M171.949 183.747V183.812C171.949 183.812 171.93 183.717 171.907 183.532C171.926 183.603 171.94 183.675 171.949 183.747Z" fill="#04D99D"/>
<path d="M171.45 183.812C172.693 182.753 174.138 181.771 175.135 180.597C177.935 177.296 176.854 173.076 178.649 169.456C180.833 165.035 187.702 161.952 194.453 162.355C193.811 164.445 193.375 166.593 193.148 168.767C192.946 170.705 193.428 172.858 192.898 174.734C192.039 177.753 187.455 179.584 186.898 182.678C186.402 185.419 189.44 187.978 188.939 190.762C188.404 193.752 184.053 195.404 182.452 198.042C181.144 200.189 181.757 202.651 181.079 204.938C180.259 207.696 177.403 210.132 173.682 211.283C173.564 211.322 173.435 211.364 173.315 211.395C172.195 210.468 170.893 208.836 169.834 207.072" stroke="black" stroke-miterlimit="10"/>
<path d="M190.331 165.819C180.264 176.652 175.53 199.492 173.687 211.286C173.536 212.28 173.407 213.19 173.284 214.01" stroke="black" stroke-miterlimit="10"/>
<path d="M191.26 220.652L186.643 247.978C186.533 248.726 186.162 249.411 185.595 249.912C185.028 250.413 184.303 250.697 183.546 250.713H159.332C158.568 250.696 157.835 250.406 157.266 249.896C156.697 249.387 156.33 248.69 156.229 247.933L151.959 220.649L191.26 220.652Z" stroke="black" stroke-miterlimit="10"/>
<path d="M195.659 217.6C195.618 218.41 195.272 219.175 194.69 219.741C194.108 220.307 193.334 220.633 192.523 220.652H150.771C149.969 220.633 149.203 220.314 148.624 219.759C148.045 219.203 147.694 218.451 147.641 217.65C147.465 215.69 148.915 214.01 150.771 214.01H192.523C194.363 214.013 195.807 215.668 195.659 217.6Z" stroke="black" stroke-miterlimit="10"/>
<path d="M167.107 210.908C168.899 209.13 171.094 205.165 172.066 201.928C172.867 199.26 171.458 196.513 171.134 193.774C170.63 189.488 172.758 184.879 170.515 180.992C169.263 178.825 166.83 177.285 165.368 175.21C162.677 171.388 163.711 166.499 161.991 162.307C159.889 157.181 153.289 153.605 146.804 154.081C147.424 156.518 147.844 159.001 148.061 161.507C148.254 163.747 147.781 166.244 148.302 168.417C149.122 171.917 153.524 174.037 154.064 177.624C154.54 180.793 151.626 183.761 152.104 186.99C152.62 190.451 156.795 192.363 158.337 195.432C159.592 197.921 159.004 200.777 159.653 203.421C160.468 206.725 163.355 209.628 167.107 210.908Z" stroke="black" stroke-miterlimit="10"/>
<path d="M150.763 158.096C160.426 170.652 164.973 197.109 166.762 210.768C166.914 211.952 167.042 213.039 167.157 214.01" stroke="black" stroke-miterlimit="10"/>
<path d="M165.363 175.21C165.363 175.21 166.027 164.304 171.605 160.989C177.182 157.673 177.065 176.252 177.065 176.252" stroke="black" stroke-miterlimit="10"/>
<path d="M171.451 183.812C171.451 183.812 170.311 177.573 172.31 171.438" stroke="black" stroke-miterlimit="10"/>
</svg>
