<svg width="36" height="36" viewBox="0 0 36 36" fill="none" xmlns="http://www.w3.org/2000/svg">
<path d="M10.14 7.25995L7.44 4.57495L5.325 6.68995L8.01 9.37495L10.14 7.25995ZM6 15.75H1.5V18.75H6V15.75ZM19.5 0.824951H16.5V5.24995H19.5V0.824951ZM30.675 6.68995L28.56 4.57495L25.875 7.25995L27.99 9.37495L30.675 6.68995ZM25.86 27.24L28.545 29.94L30.66 27.825L27.96 25.14L25.86 27.24ZM30 15.75V18.75H34.5V15.75H30ZM18 8.24995C13.035 8.24995 9 12.285 9 17.25C9 22.215 13.035 26.25 18 26.25C22.965 26.25 27 22.215 27 17.25C27 12.285 22.965 8.24995 18 8.24995ZM16.5 33.675H19.5V29.25H16.5V33.675ZM5.325 27.81L7.44 29.925L10.125 27.225L8.01 25.11L5.325 27.81Z" fill="#04D99D"/>
</svg>
