<svg width="97" height="103" viewBox="0 0 97 103" fill="none" xmlns="http://www.w3.org/2000/svg">
<path d="M85.7989 83.9416C90.7776 77.6786 94.2403 70.254 95.8941 62.2959C97.548 54.3378 97.3442 46.0803 95.3002 38.2219C93.2561 30.3636 89.4319 23.1355 84.151 17.1492C78.8701 11.163 72.2878 6.59458 64.9611 3.83054C57.6344 1.0665 49.7787 0.188128 42.0586 1.26972C34.3386 2.35131 26.9812 5.36105 20.6089 10.0443C14.2367 14.7276 9.03698 20.9467 5.44973 28.1754C1.86247 35.4041 -0.00680384 43.4298 1.86083e-05 51.5736C0.00263662 63.4123 3.99284 74.872 11.2705 83.9416L11.2011 84.0032C11.4438 84.3077 11.7211 84.5687 11.9707 84.8695C12.2828 85.2428 12.619 85.5944 12.9414 85.9569C13.9121 87.0588 14.9106 88.1172 15.9575 89.1103C16.2765 89.4148 16.6058 89.6975 16.9282 89.9875C18.0376 90.9879 19.1781 91.9375 20.3603 92.822C20.5128 92.9307 20.6515 93.0721 20.8041 93.1844V93.1409C28.9236 99.1149 38.6097 102.321 48.5382 102.321C58.4666 102.321 68.1527 99.1149 76.2722 93.1409V93.1844C76.4248 93.0721 76.56 92.9307 76.716 92.822C77.8947 91.9339 79.0387 90.9879 80.1481 89.9875C80.4705 89.6975 80.7998 89.4112 81.1188 89.1103C82.1657 88.1136 83.1642 87.0588 84.1349 85.9569C84.4573 85.5944 84.7901 85.2428 85.1056 84.8695C85.3517 84.5687 85.6325 84.3077 85.8752 83.9996L85.7989 83.9416ZM48.5347 22.5765C51.6202 22.5765 54.6363 23.5331 57.2018 25.3254C59.7673 27.1176 61.7668 29.665 62.9476 32.6455C64.1284 35.6259 64.4373 38.9055 63.8354 42.0695C63.2334 45.2335 61.7476 48.1398 59.5659 50.4209C57.3841 52.702 54.6044 54.2555 51.5782 54.8848C48.552 55.5142 45.4153 55.1912 42.5647 53.9566C39.7141 52.7221 37.2776 50.6315 35.5634 47.9492C33.8492 45.2669 32.9343 42.1133 32.9343 38.8874C32.9343 34.5614 34.5779 30.4127 37.5035 27.3538C40.4292 24.295 44.3972 22.5765 48.5347 22.5765ZM20.8249 83.9416C20.885 79.1823 22.7349 74.6392 25.9742 71.295C29.2136 67.9508 33.582 66.0746 38.1344 66.0721H58.935C63.4873 66.0746 67.8558 67.9508 71.0951 71.295C74.3345 74.6392 76.1844 79.1823 76.2445 83.9416C68.6414 91.1051 58.7695 95.0695 48.5347 95.0695C38.2999 95.0695 28.428 91.1051 20.8249 83.9416Z" fill="black" fill-opacity="0.2"/>
</svg>
